<?xml version="1.0" encoding="utf-8"?>
<!-- Generator: Adobe Illustrator 16.0.0, SVG Export Plug-In . SVG Version: 6.00 Build 0)  -->
<!DOCTYPE svg PUBLIC "-//W3C//DTD SVG 1.1//EN" "http://www.w3.org/Graphics/SVG/1.1/DTD/svg11.dtd">
<svg version="1.1"
	 id="Icon" xmlns:inkscape="http://www.inkscape.org/namespaces/inkscape" xmlns:sodipodi="http://sodipodi.sourceforge.net/DTD/sodipodi-0.dtd" xmlns:svg="http://www.w3.org/2000/svg" xmlns:rdf="http://www.w3.org/1999/02/22-rdf-syntax-ns#" xmlns:cc="http://creativecommons.org/ns#" xmlns:dc="http://purl.org/dc/elements/1.1/" inkscape:export-ydpi="960" sodipodi:docname="appIcon.svg" inkscape:export-xdpi="960" inkscape:export-filename="D:\github\inspetor-mups\resources\icons\icon-android_play-store.png" inkscape:version="0.91 r13725"
	 xmlns="http://www.w3.org/2000/svg" xmlns:xlink="http://www.w3.org/1999/xlink" x="0px" y="0px" width="612px" height="612px"
	 viewBox="0 90 612 612" enable-background="new 0 90 612 612" xml:space="preserve">
<g id="Grid" inkscape:label="Grid" sodipodi:insensitive="true" inkscape:groupmode="layer" display="none">
	
		<path id="path3586" inkscape:connector-curvature="0" display="inline" opacity="0.6" fill="none" stroke="#000000" stroke-width="0.9452" enable-background="new    " d="
		M89.251,346.104l331.427,0.06L89.251,346.104z"/>
	
		<path id="path3586-3" inkscape:connector-curvature="0" display="inline" opacity="0.6" fill="none" stroke="#000000" stroke-width="0.9452" enable-background="new    " d="
		M255.946,510.749l0.063-331.427L255.946,510.749z"/>
</g>
<circle id="White" fill="#FFFFFF" cx="254.609" cy="345.826" r="162.373"/>
<g id="Recycle">
	<g>
		<path fill="#6AC259" d="M157.396,358.877c0,0.012-0.012,0.012-0.012,0.024l-0.671,1.165c-0.012,0.024-0.024,0.049-0.037,0.073
			l-11.558,19.998l24.456,14.113l11.216-19.438l1.404-2.433l3.384-5.861l8.142-14.125h-24.456
			C164.305,352.419,159.908,354.992,157.396,358.877z"/>
		<path fill="#6AC259" d="M214.114,359.48c-1.195-2.073-2.933-3.891-5.165-5.171c-2.239-1.287-4.661-1.891-7.063-1.891H177.43
			h-8.154c4.971,0,9.343,2.561,11.868,6.434l0.763,1.323l19.681,34.085l24.457-14.112L214.114,359.48z"/>
		<polygon fill="#6AC259" points="189.847,394.261 217.902,394.261 231.929,369.983 		"/>
		<path fill="#6AC259" d="M246.481,415.523c0,0-0.012,0-0.024-0.025l-0.678-1.146c0-0.049-0.024-0.049-0.036-0.074l-11.54-20.016
			l-24.456,14.101l11.216,19.456l1.409,2.426l3.373,5.867l8.153,14.126l12.229-21.177
			C248.627,424.744,248.59,419.668,246.481,415.523z"/>
		<path fill="#6AC259" d="M217.603,464.361c2.396,0,4.83-0.611,7.056-1.902c2.238-1.27,3.971-3.074,5.172-5.174l12.228-21.174
			l4.081-7.039c-2.483,4.295-6.88,6.807-11.503,7.039h-1.549h-39.355v28.262h23.871V464.361L217.603,464.361z"/>
		<polygon fill="#6AC259" points="199.606,425.963 185.59,450.237 199.606,474.534 		"/>
		<path fill="#6AC259" d="M177.43,436.111h-22.456h-2.811h-6.771H129.11l12.228,21.174c2.494,4.319,6.915,6.832,11.538,7.076
			c0.012,0,0.012,0,0.024,0h1.349c0.024,0,0.054,0,0.09,0h23.079L177.43,436.111L177.43,436.111z"/>
		<path fill="#6AC259" d="M125.023,414.937c-1.201,2.072-1.885,4.486-1.885,7.051c0,2.585,0.696,4.987,1.885,7.061l12.228,21.164
			l4.087,7.049c-2.489-4.293-2.465-9.368-0.366-13.489l0.775-1.318l19.686-34.092l-24.457-14.101L125.023,414.937z"/>
		<polygon fill="#6AC259" points="167.276,418.548 153.267,394.261 125.225,394.261 		"/>
	</g>
	
		<sodipodi:namedview  id="namedview16" objecttolerance="10" bordercolor="#666666" borderopacity="1" pagecolor="#ffffff" gridtolerance="10" guidetolerance="10" showgrid="false" inkscape:zoom="8" inkscape:cx="4" inkscape:cy="21.696376" inkscape:current-layer="layer3" inkscape:window-maximized="1" inkscape:window-y="-8" inkscape:window-x="-8" inkscape:window-height="705" inkscape:window-width="1366" inkscape:pageshadow="2" inkscape:pageopacity="0" inkscape:snap-intersection-paths="false">
		</sodipodi:namedview>
</g>
<g id="Toilet">
	<path fill="#BAC2CF" d="M349.977,441.162c-1.001-0.646-2.271-0.756-3.318-0.268c-3.928,1.742-8.148,2.609-12.49,2.609
		c-14.846,0-28.214-10.516-31.135-25.005c-0.322-1.636-1.763-2.806-3.397-2.806h-4.183v-45.649c0-1.921-1.561-3.47-3.47-3.47
		h-27.816c-1.928,0-3.477,1.561-3.477,3.47v42.185c0,2.683,0.263,5.244,0.775,7.562c0,0.023,0,0.049,0,0.072
		c0,0.025,0.012,0.025,0.012,0.049l0,0l0,0c1.8,8.746,6.647,16.639,13.68,22.285c3.768,2.988,5.294,7.601,3.873,11.746
		l-4.233,12.783c-0.354,1.074-0.177,2.246,0.482,3.146c0.653,0.892,1.701,1.429,2.811,1.429h69.983c1.929,0,3.477-1.55,3.477-3.477
		v-23.76C351.537,442.893,350.951,441.795,349.977,441.162z"/>
	<path fill="#E0E4EC" d="M298.936,373.513H260.69v-10.429c0-5.757,4.672-10.428,10.43-10.428h27.816
		c5.744,0,10.428,4.684,10.428,10.428C309.364,368.83,304.68,373.513,298.936,373.513z"/>
	<path fill="#D1D7E3" d="M334.168,450.445c-18.151,0-34.355-12.845-37.941-30.582c-0.212-1.022,0.061-2.072,0.727-2.902
		c0.659-0.793,1.646-1.268,2.695-1.268h68.6c1.047,0,2,0.465,2.671,1.268c0.671,0.806,0.928,1.855,0.745,2.902
		c-2.405,12.148-10.711,22.396-22.176,27.386C344.633,449.371,339.487,450.445,334.168,450.445z"/>
	<path fill="#E0E4EC" d="M368.917,422.646h-69.981c-5.758,0-10.429-4.685-10.429-10.441l0,0c0-5.757,4.67-10.422,10.429-10.422
		h69.981c5.759,0,10.442,4.689,10.442,10.422C379.36,417.962,374.676,422.646,368.917,422.646z"/>
</g>
<g id="Sink">
	<g>
		<path fill="#0E4675" d="M205.851,268.67c0-7.428-6.021-13.459-13.442-13.459h-41.167l-5.72,8.892h41.618v4.556h18.712V268.67z"/>
		<path fill="#0E4675" d="M155.889,237.146c-1.128-1.135-2.939-1.135-4.049,0l-18.059,18.064l4.032,4.055l18.063-18.07
			C156.999,240.086,156.999,238.262,155.889,237.146z"/>
	</g>
	<rect x="133.793" y="255.21" fill="#3D7A94" width="17.449" height="29.084"/>
	<path fill="#9AE1D3" d="M173.148,278.562h-45.015c-2.762,0-5.007,2.251-5.007,5.014v6.654l31.111,5.732l31.116-5.732
		C180.565,282.088,179.308,278.562,173.148,278.562z"/>
	<path fill="#83C7C3" d="M123.138,329.128c0,5.042,4.099,9.154,9.155,9.154h46.936c38.007,0,68.811-21.498,68.811-48.052H123.138
		C123.138,302.835,123.138,329.128,123.138,329.128z"/>
</g>
<g id="Rain">
	<g>
		<path fill="#9FDEF7" d="M376.492,303.732c-0.439,0-0.891-0.146-1.291-0.434c-0.952-0.713-1.147-2.061-0.415-3.013l3.755-5.02
			c0.732-0.951,2.075-1.152,3.027-0.426c0.949,0.713,1.145,2.061,0.438,3.013l-3.792,5.018
			C377.799,303.433,377.153,303.732,376.492,303.732z"/>
		<path fill="#9FDEF7" d="M367.846,315.264c-0.452,0-0.892-0.151-1.307-0.438c-0.938-0.714-1.145-2.062-0.415-3.013l3.77-5.032
			c0.72-0.951,2.075-1.134,3.024-0.427c0.94,0.726,1.148,2.074,0.428,3.024l-3.781,5.02
			C369.149,314.96,368.517,315.264,367.846,315.264z"/>
		<path fill="#9FDEF7" d="M359.198,326.779c-0.463,0-0.902-0.141-1.306-0.426c-0.952-0.726-1.136-2.074-0.427-3.025l3.781-5.02
			c0.721-0.946,2.072-1.147,3.013-0.421c0.952,0.719,1.159,2.062,0.427,3.006l-3.77,5.032
			C360.49,326.492,359.83,326.779,359.198,326.779z"/>
		<path fill="#9FDEF7" d="M350.535,338.306c-0.461,0-0.912-0.134-1.291-0.427c-0.952-0.72-1.16-2.073-0.439-3.019l3.781-5.02
			c0.706-0.951,2.073-1.152,3.025-0.426c0.952,0.713,1.133,2.061,0.415,3.013l-3.782,5.032
			C351.83,338.019,351.183,338.306,350.535,338.306z"/>
		<path fill="#9FDEF7" d="M359.928,303.732c-0.449,0-0.9-0.146-1.291-0.434c-0.953-0.713-1.16-2.061-0.439-3.013l3.793-5.02
			c0.706-0.951,2.061-1.152,3.014-0.426c0.949,0.713,1.145,2.061,0.414,3.013l-3.77,5.018
			C361.246,303.433,360.587,303.732,359.928,303.732z"/>
		<path fill="#9FDEF7" d="M351.268,315.264c-0.439,0-0.9-0.151-1.291-0.438c-0.952-0.714-1.147-2.062-0.415-3.013l3.77-5.032
			c0.718-0.951,2.061-1.134,3.013-0.427c0.949,0.726,1.145,2.074,0.438,3.024l-3.779,5.02
			C352.563,314.96,351.928,315.264,351.268,315.264z"/>
		<path fill="#9FDEF7" d="M342.609,326.779c-0.439,0-0.903-0.141-1.306-0.426c-0.938-0.726-1.133-2.074-0.403-3.025l3.782-5.02
			c0.707-0.946,2.051-1.147,3-0.421c0.952,0.719,1.147,2.062,0.428,3.006l-3.782,5.032
			C343.927,326.492,343.268,326.779,342.609,326.779z"/>
		<path fill="#9FDEF7" d="M333.961,338.306c-0.451,0-0.891-0.134-1.307-0.427c-0.951-0.72-1.145-2.073-0.414-3.019l3.781-5.02
			c0.708-0.951,2.061-1.152,3-0.426c0.953,0.713,1.148,2.061,0.439,3.013l-3.781,5.02
			C335.265,338.019,334.606,338.306,333.961,338.306z"/>
		<path fill="#9FDEF7" d="M343.365,303.732c-0.451,0-0.903-0.146-1.294-0.434c-0.952-0.713-1.147-2.061-0.439-3.013l3.782-5.02
			c0.732-0.951,2.072-1.152,3.024-0.426c0.952,0.713,1.147,2.061,0.415,3.013l-3.758,5.018
			C344.656,303.433,344.025,303.732,343.365,303.732z"/>
		<path fill="#9FDEF7" d="M334.703,315.264c-0.438,0-0.9-0.151-1.291-0.438c-0.953-0.714-1.148-2.062-0.428-3.013l3.77-5.032
			c0.732-0.951,2.072-1.134,3.025-0.427c0.949,0.726,1.145,2.074,0.427,3.024l-3.77,5.02
			C336.01,314.96,335.363,315.264,334.703,315.264z"/>
		<path fill="#9FDEF7" d="M326.043,326.779c-0.439,0-0.9-0.141-1.291-0.426c-0.952-0.726-1.16-2.074-0.439-3.025l3.781-5.02
			c0.73-0.946,2.073-1.147,3.025-0.421c0.949,0.719,1.145,2.062,0.439,3.006l-3.794,5.032
			C327.362,326.492,326.703,326.779,326.043,326.779z"/>
		<path fill="#9FDEF7" d="M317.384,338.306c-0.439,0-0.903-0.134-1.294-0.427c-0.949-0.72-1.145-2.073-0.415-3.019l3.77-5.02
			c0.72-0.951,2.063-1.152,3.013-0.426c0.952,0.713,1.147,2.061,0.439,3.013l-3.779,5.032
			C318.678,338.019,318.043,338.306,317.384,338.306z"/>
		<path fill="#9FDEF7" d="M318.141,315.264c-0.464,0-0.903-0.151-1.307-0.438c-0.939-0.714-1.145-2.062-0.427-3.013l3.782-5.032
			c0.72-0.951,2.072-1.134,3.024-0.427c0.94,0.726,1.147,2.074,0.415,3.024l-3.781,5.02
			C319.432,314.96,318.8,315.264,318.141,315.264z"/>
		<path fill="#9FDEF7" d="M309.479,326.779c-0.449,0-0.913-0.141-1.297-0.426c-0.951-0.726-1.146-2.074-0.439-3.025l3.775-5.02
			c0.72-0.946,2.072-1.147,3.012-0.421c0.953,0.719,1.16,2.062,0.439,3.006l-3.781,5.032
			C310.78,326.492,310.125,326.779,309.479,326.779z"/>
		<path fill="#9FDEF7" d="M300.826,338.306c-0.452,0-0.903-0.134-1.299-0.427c-0.952-0.72-1.142-2.073-0.427-3.019l3.774-5.02
			c0.72-0.951,2.068-1.152,3.019-0.426c0.951,0.713,1.153,2.061,0.439,3.013l-3.788,5.032
			C302.125,338.019,301.472,338.306,300.826,338.306z"/>
		<path fill="#9FDEF7" d="M301.558,315.264c-0.446,0-0.896-0.151-1.299-0.438c-0.946-0.714-1.134-2.062-0.421-3.013l3.782-5.032
			c0.713-0.951,2.061-1.134,3.025-0.427c0.951,0.726,1.133,2.074,0.427,3.024l-3.788,5.02
			C302.875,314.96,302.223,315.264,301.558,315.264z"/>
		<path fill="#9FDEF7" d="M292.904,326.779c-0.452,0-0.91-0.141-1.299-0.426c-0.946-0.726-1.147-2.074-0.421-3.025l3.769-5.02
			c0.714-0.946,2.074-1.147,3.025-0.421c0.946,0.719,1.135,2.062,0.421,3.006l-3.769,5.032
			C294.203,326.492,293.568,326.779,292.904,326.779z"/>
		<path fill="#9FDEF7" d="M284.249,338.306c-0.452,0-0.902-0.134-1.299-0.427c-0.951-0.72-1.134-2.073-0.427-3.019l3.776-5.02
			c0.726-0.951,2.074-1.152,3.019-0.426c0.951,0.713,1.152,2.061,0.439,3.013l-3.782,5.02
			C285.56,338.019,284.908,338.306,284.249,338.306z"/>
		<path fill="#9FDEF7" d="M285,315.264c-0.452,0-0.916-0.151-1.3-0.438c-0.963-0.714-1.152-2.062-0.438-3.013l3.788-5.032
			c0.707-0.951,2.061-1.134,3.018-0.427c0.952,0.726,1.141,2.074,0.427,3.024l-3.774,5.02
			C286.299,314.96,285.646,315.264,285,315.264z"/>
		<path fill="#9FDEF7" d="M276.345,326.779c-0.45,0-0.902-0.141-1.299-0.426c-0.951-0.726-1.152-2.074-0.427-3.025l3.77-5.02
			c0.714-0.946,2.074-1.147,3.024-0.421c0.951,0.719,1.146,2.062,0.428,3.006l-3.776,5.032
			C277.645,326.492,276.992,326.779,276.345,326.779z"/>
		<path fill="#9FDEF7" d="M267.673,338.306c-0.445,0-0.897-0.134-1.299-0.427c-0.946-0.72-1.135-2.073-0.421-3.019l3.782-5.02
			c0.713-0.951,2.061-1.152,3.025-0.426c0.945,0.713,1.134,2.061,0.42,3.013l-3.78,5.032
			C268.985,338.019,268.339,338.306,267.673,338.306z"/>
		<path fill="#9FDEF7" d="M367.309,270.634h-27.164c-5.246,0-9.514-4.256-9.514-9.502c0-5.25,4.268-9.508,9.514-9.508
			c0.828,0,1.634,0.11,2.391,0.299c1.001-1.445,2.488-2.524,4.246-2.995c-2.879-7.434-10.113-12.704-18.543-12.704
			c-9.478,0-17.397,6.617-19.399,15.484c-1.184-0.396-2.458-0.609-3.78-0.609c-4.074,0-7.66,2.036-9.819,5.147
			c-1.195-0.313-2.458-0.488-3.756-0.488c-8.27,0-14.967,6.697-14.967,14.96c0,2.403,0.562,4.671,1.562,6.672
			c1.763-5.446,6.861-9.367,12.881-9.367c6.44,0,11.837,4.494,13.198,10.538c0.816-0.269,1.677-0.421,2.573-0.421
			c2.773,0,5.215,1.385,6.677,3.495c0.818-0.208,1.686-0.311,2.562-0.311c3.452,0,6.514,1.726,8.369,4.361H340.9h7.808h3.83
			c8.147,0,14.783-6.624,14.783-14.79C367.321,270.811,367.309,270.719,367.309,270.634z"/>
	</g>
	<path fill="#E4F2F9" d="M379.835,251.472c-1.013,0-1.999,0.164-2.903,0.451c0-0.146,0-0.287,0-0.451
		c0-7.215-5.83-13.064-13.051-13.064c-6.221,0-11.441,4.348-12.76,10.166c-0.778-0.261-1.608-0.396-2.475-0.396
		c-2.672,0-5.037,1.335-6.453,3.384c-0.781-0.2-1.609-0.31-2.463-0.31c-5.439,0-9.832,4.391-9.832,9.824
		c0,5.435,4.393,9.832,9.832,9.832h40.104c5.366,0,9.71-4.348,9.71-9.715C389.545,255.821,385.201,251.472,379.835,251.472z"/>
	<path fill="#83D4ED" d="M307.43,251.338c-0.773-0.165-1.561-0.238-2.371-0.238c-4.074,0-7.66,2.036-9.819,5.147
		c-1.195-0.3-2.458-0.476-3.756-0.476c-8.27,0-14.967,6.697-14.967,14.959c0,2.404,0.562,4.672,1.562,6.673
		c1.763-5.447,6.861-9.368,12.881-9.368c6.44,0,11.837,4.507,13.198,10.545c0.816-0.275,1.677-0.428,2.573-0.428
		c2.773,0,5.215,1.386,6.677,3.495c0.818-0.208,1.686-0.312,2.562-0.312c3.452,0,6.514,1.727,8.369,4.362h11.221
		C320.043,281.599,308.419,267.902,307.43,251.338z"/>
	<path fill="#D7EDF9" d="M350.367,248.386c-0.562-0.122-1.123-0.195-1.733-0.195c-2.671,0-5.024,1.335-6.452,3.384
		c-0.794-0.2-1.621-0.31-2.464-0.31c-5.452,0-9.831,4.391-9.831,9.824c0,5.435,4.404,9.832,9.831,9.832h24.968
		C356.256,266.914,350.414,258.333,350.367,248.386z"/>
	<path fill="#E4F2F9" d="M316.248,281.05c-0.889,0-1.742,0.122-2.561,0.324c-1.463-2.109-3.908-3.495-6.683-3.495
		c-0.898,0-1.757,0.146-2.569,0.415c-1.366-6.038-6.756-10.544-13.203-10.544c-7.472,0-13.526,6.056-13.526,13.539
		c0,0.153,0,0.299,0.012,0.452c-0.952-0.287-1.964-0.452-3.014-0.452c-5.555,0-10.062,4.496-10.062,10.07
		c0,5.543,4.507,10.063,10.062,10.063h26.609h7.281h7.653c5.623,0,10.186-4.556,10.186-10.179
		C326.434,285.625,321.871,281.05,316.248,281.05z"/>
	<path fill="#D7EDF9" d="M281.353,272.061c-2.262,2.422-3.646,5.667-3.646,9.227c0,0.153,0,0.299,0.012,0.452
		c-0.952-0.287-1.964-0.452-3.014-0.452c-5.555,0-10.062,4.496-10.062,10.07c0,5.543,4.507,10.063,10.062,10.063h26.609h0.897
		C290.16,297.066,281.499,285.589,281.353,272.061z"/>
</g>
<g id="Glass" opacity="0.3">
	<circle id="Glass_1_" fill="#64B5F6" cx="254.86" cy="345.826" r="162.373"/>
	<path id="Reflection" fill="#BBDEFB" d="M254.86,233.413c-33.713,0-64.939,14.973-86.145,39.954
		c-5.02,5.024-3.774,13.782,1.226,17.515c5.02,4.958,13.765,3.708,17.51-1.287c17.449-19.985,41.143-31.201,67.41-31.201
		c26.255,0,49.961,11.216,67.427,31.226c2.539,2.483,6.245,4.971,10.003,4.971c2.487,0,6.244-1.238,7.514-2.488
		c4.977-4.954,4.977-13.711,1.219-18.735C319.799,248.386,288.573,233.413,254.86,233.413z"/>
	<g>
		<rect x="290.446" y="360.701" fill="none" width="164.258" height="66.58"/>
		<line fill="none" x1="290.446" y1="416.191" x2="454.703" y2="416.191"/>
		<line fill="none" x1="290.446" y1="405.081" x2="454.703" y2="405.081"/>
		<line fill="none" x1="290.446" y1="393.987" x2="454.703" y2="393.987"/>
		<line fill="none" x1="290.446" y1="382.912" x2="454.703" y2="382.912"/>
		<line fill="none" x1="290.446" y1="371.795" x2="454.703" y2="371.795"/>
		<line fill="none" x1="427.309" y1="360.701" x2="427.309" y2="427.281"/>
		<line fill="none" x1="399.962" y1="360.701" x2="399.962" y2="427.281"/>
		<line fill="none" x1="372.565" y1="360.701" x2="372.565" y2="427.281"/>
		<line fill="none" x1="345.17" y1="360.701" x2="345.17" y2="427.281"/>
		<line fill="none" x1="317.836" y1="360.701" x2="317.836" y2="427.281"/>
	</g>
</g>
<g id="Magnifying_Glass">
	
		<rect x="437.288" y="446.797" transform="matrix(0.7071 -0.7071 0.7071 0.7071 -255.6276 488.8476)" fill="#616161" width="49.957" height="212.381"/>
	<path fill="#616161" d="M254.86,145.982c-110.362,0-199.844,89.481-199.844,199.844c0,110.364,89.481,199.844,199.844,199.844
		c110.363,0,199.844-89.48,199.844-199.844C454.703,235.463,365.223,145.982,254.86,145.982z M254.86,508.199
		c-89.683,0-162.373-72.698-162.373-162.374c0-89.683,72.69-162.373,162.373-162.373c89.676,0,162.373,72.69,162.373,162.373
		C417.233,435.501,344.535,508.199,254.86,508.199z"/>
	
		<rect x="457.426" y="497.263" transform="matrix(0.7071 -0.7071 0.7071 0.7071 -264.6431 509.2748)" fill="#37474F" width="49.955" height="153.628"/>
</g>
</svg>
