<svg xmlns="http://www.w3.org/2000/svg" enable-background="new 0 0 48 48" viewBox="0 0 48 48" x="0px" y="0px" version="1.0" xmlns:xml="http://www.w3.org/XML/1998/namespace" xml:space="preserve" xmlns:xlink="http://www.w3.org/1999/xlink">
<g>
	
		<rect fill="#616161" transform="matrix(0.7071 -0.7071 0.7071 0.7071 -15.1544 36.5859)" x="34.6" y="28.1" width="4" height="17" />
	<circle fill="#616161" cx="20" cy="20" r="16" />
</g>
<rect fill="#37474f" transform="matrix(0.7071 -0.7071 0.7071 0.7071 -15.8392 38.2393)" x="36.2" y="32.1" width="4" height="12.3" />
<circle fill="#64b5f6" cx="20" cy="20" r="13" />
<path fill="#bbdefb" d="M 26.9 14.2 c -1.7 -2 -4.2 -3.2 -6.9 -3.2 s -5.2 1.2 -6.9 3.2 c -0.4 0.4 -0.3 1.1 0.1 1.4 c 0.4 0.4 1.1 0.3 1.4 -0.1 C 16 13.9 17.9 13 20 13 s 4 0.9 5.4 2.5 c 0.2 0.2 0.5 0.4 0.8 0.4 c 0.2 0 0.5 -0.1 0.6 -0.2 C 27.2 15.3 27.2 14.6 26.9 14.2 Z" />
</svg>