<svg xmlns="http://www.w3.org/2000/svg" enable-background="new 0 0 48 48" viewBox="0 0 48 48" x="0px" y="0px" version="1.1" xmlns:xml="http://www.w3.org/XML/1998/namespace" xml:space="preserve" xmlns:xlink="http://www.w3.org/1999/xlink">
<g>
	<g>
		<path fill="#4caf50" d="M 19.5 13.4 l 2.3 -4.1 C 22.2 8.5 23 8 24 8 s 1.8 0.5 2.3 1.3 l 7.3 13 l 3.5 -2 l -7.3 -13 C 28.6 5.3 26.4 4 24 4 s -4.6 1.3 -5.8 3.4 l -2.3 4 L 19.5 13.4 Z" />
		<path fill="#4caf50" d="M 41 27.3 l -3.5 2 l 2.2 3.9 c 0.5 0.8 0.1 1.6 0 1.8 c -0.2 0.3 -0.6 0.9 -1.6 0.9 H 23 v 4 h 15.1 c 2.1 0 4 -1.1 5 -2.9 s 1.1 -4 0 -5.8 L 41 27.3 Z" />
		<path fill="#4caf50" d="M 15 36 H 9.9 c -0.9 0 -1.4 -0.6 -1.6 -0.9 c -0.2 -0.3 -0.5 -1 0 -1.8 l 7.3 -12.9 l -3.5 -2 l -7.3 13 c -1 1.8 -1 4 0 5.8 s 2.9 2.9 5 2.9 H 15 V 36 Z" />
	</g>
	<polygon fill="#4caf50" points="26,43 26,33 19,38" />
	<polygon fill="#4caf50" points="7.8,19.8 16.4,24.8 15.6,16.3" />
	<polygon fill="#4caf50" points="37.4,24.8 38.2,16.3 29.6,21.3" />
</g>
</svg>