<?xml version="1.0" encoding="iso-8859-1"?>
<!-- Generator: Adobe Illustrator 19.0.0, SVG Export Plug-In . SVG Version: 6.00 Build 0)  -->
<svg version="1.1" id="Layer_1" xmlns="http://www.w3.org/2000/svg" xmlns:xlink="http://www.w3.org/1999/xlink" x="0px" y="0px"
	 viewBox="0 0 511.999 511.999" style="enable-background:new 0 0 511.999 511.999;" xml:space="preserve">
<g>
	<path style="fill:#0E4675;" d="M339.073,179.621c0-30.467-24.698-55.165-55.165-55.165H115.165l-23.478,36.5h170.62v18.665
		L339.073,179.621L339.073,179.621z"/>
	<path style="fill:#0E4675;" d="M134.258,50.426c-4.585-4.584-12.016-4.584-16.603,0l-74.03,74.03l16.603,16.603l74.03-74.03
		C138.842,62.444,138.842,55.01,134.258,50.426z"/>
</g>
<rect x="43.623" y="124.458" style="fill:#3D7A94;" width="71.539" height="119.247"/>
<path style="fill:#9AE1D3;" d="M205.055,220.229H20.507C9.181,220.229,0,229.411,0,240.737v27.343l127.52,23.478l127.52-23.478
	C235.45,234.73,230.287,220.229,205.055,220.229z"/>
<path style="fill:#83C7C3;" d="M0,427.445c0,20.747,16.819,37.565,37.565,37.565h192.371c155.779,0,282.063-88.17,282.063-196.931H0
	C0,319.605,0,427.445,0,427.445z"/>
<g>
</g>
<g>
</g>
<g>
</g>
<g>
</g>
<g>
</g>
<g>
</g>
<g>
</g>
<g>
</g>
<g>
</g>
<g>
</g>
<g>
</g>
<g>
</g>
<g>
</g>
<g>
</g>
<g>
</g>
</svg>
