<?xml version="1.0" encoding="utf-8"?>
<!-- Generator: Adobe Illustrator 16.0.0, SVG Export Plug-In . SVG Version: 6.00 Build 0)  -->
<!DOCTYPE svg PUBLIC "-//W3C//DTD SVG 1.1//EN" "http://www.w3.org/Graphics/SVG/1.1/DTD/svg11.dtd">
<svg version="1.1" id="Icon" xmlns="http://www.w3.org/2000/svg" xmlns:xlink="http://www.w3.org/1999/xlink" x="0px" y="0px"
	 width="1024px" height="500px" viewBox="0 0 1024 500" enable-background="new 0 0 1024 500" xml:space="preserve">
<g id="Recycle">
	<g>
		<path fill="#6AC259" d="M123.428,222.287c0,0.01-0.01,0.01-0.01,0.02l-0.537,0.932c-0.01,0.02-0.02,0.039-0.029,0.059
			l-9.246,15.998l19.564,11.29l8.973-15.55l1.123-1.946l2.707-4.688l6.514-11.3h-19.564
			C128.955,217.12,125.438,219.178,123.428,222.287z"/>
		<path fill="#6AC259" d="M168.802,222.769c-0.956-1.658-2.347-3.112-4.132-4.137c-1.791-1.029-3.729-1.513-5.65-1.513h-19.564
			h-6.523c3.977,0,7.475,2.049,9.494,5.147l0.61,1.059l15.744,27.269l19.565-11.29L168.802,222.769z"/>
		<polygon fill="#6AC259" points="149.389,250.594 171.832,250.594 183.054,231.172 		"/>
		<path fill="#6AC259" d="M194.696,267.603c0,0-0.01,0-0.02-0.02l-0.542-0.918c0-0.039-0.02-0.039-0.029-0.059l-9.231-16.013
			l-19.564,11.28l8.973,15.564l1.127,1.941l2.698,4.693l6.522,11.301l9.783-16.941C196.412,274.98,196.383,270.92,194.696,267.603z"
			/>
		<path fill="#6AC259" d="M171.593,306.674c1.917,0,3.864-0.488,5.645-1.521c1.791-1.016,3.177-2.459,4.138-4.139l9.782-16.939
			l3.265-5.631c-1.986,3.436-5.504,5.445-9.202,5.631h-1.239h-31.484v22.609h19.097V306.674L171.593,306.674z"/>
		<polygon fill="#6AC259" points="157.196,275.955 145.983,295.375 157.196,314.812 		"/>
		<path fill="#6AC259" d="M139.455,284.074H121.49h-2.249h-5.416h-13.026l9.782,16.939c1.995,3.455,5.532,5.465,9.23,5.66
			c0.01,0,0.01,0,0.02,0h1.079c0.02,0,0.043,0,0.072,0h18.463L139.455,284.074L139.455,284.074z"/>
		<path fill="#6AC259" d="M97.53,267.135c-0.961,1.658-1.508,3.59-1.508,5.641c0,2.068,0.557,3.99,1.508,5.648l9.782,16.932
			l3.27,5.639c-1.991-3.434-1.972-7.494-0.293-10.791l0.62-1.055l15.749-27.273l-19.565-11.28L97.53,267.135z"/>
		<polygon fill="#6AC259" points="131.331,270.023 120.124,250.594 97.691,250.594 		"/>
	</g>
	
		<sodipodi:namedview  id="namedview16" objecttolerance="10" bordercolor="#666666" borderopacity="1" pagecolor="#ffffff" gridtolerance="10" guidetolerance="10" showgrid="false" inkscape:zoom="8" inkscape:cx="4" inkscape:cy="21.696376" inkscape:current-layer="layer3" inkscape:window-maximized="1" inkscape:window-y="-8" inkscape:window-x="-8" inkscape:window-height="705" inkscape:window-width="1366" inkscape:pageshadow="2" inkscape:pageopacity="0" inkscape:snap-intersection-paths="false">
		</sodipodi:namedview>
</g>
<g id="Toilet">
	<path fill="#BAC2CF" d="M277.492,288.115c-0.801-0.518-1.816-0.605-2.654-0.215c-3.143,1.395-6.52,2.088-9.992,2.088
		c-11.877,0-22.571-8.412-24.908-20.004c-0.258-1.309-1.41-2.244-2.718-2.244h-3.347v-36.52c0-1.537-1.249-2.776-2.776-2.776
		h-22.253c-1.542,0-2.781,1.249-2.781,2.776v33.748c0,2.146,0.21,4.195,0.62,6.049c0,0.02,0,0.039,0,0.059s0.01,0.02,0.01,0.039l0,0
		l0,0c1.439,6.996,5.317,13.311,10.943,17.828c3.015,2.391,4.235,6.08,3.099,9.396l-3.387,10.227
		c-0.283,0.859-0.142,1.797,0.386,2.518c0.522,0.713,1.361,1.143,2.249,1.143h55.986c1.543,0,2.781-1.24,2.781-2.781v-19.008
		C278.74,289.5,278.272,288.621,277.492,288.115z"/>
	<path fill="#E0E4EC" d="M236.659,233.996h-30.597v-8.343c0-4.605,3.737-8.343,8.344-8.343h22.253c4.596,0,8.343,3.747,8.343,8.343
		S241.255,233.996,236.659,233.996z"/>
	<path fill="#D1D7E3" d="M264.846,295.541c-14.521,0-27.484-10.275-30.354-24.465c-0.17-0.818,0.049-1.658,0.581-2.322
		c0.527-0.635,1.317-1.014,2.156-1.014h54.88c0.838,0,1.6,0.371,2.137,1.014c0.537,0.645,0.742,1.484,0.596,2.322
		c-1.924,9.719-8.568,17.916-17.74,21.908C273.217,294.681,269.1,295.541,264.846,295.541z"/>
	<path fill="#E0E4EC" d="M292.645,273.302h-55.985c-4.606,0-8.343-3.748-8.343-8.354l0,0c0-4.605,3.736-8.338,8.343-8.338h55.985
		c4.607,0,8.354,3.752,8.354,8.338C300.998,269.554,297.252,273.302,292.645,273.302z"/>
</g>
<g id="Sink">
	<g>
		<path fill="#0E4675" d="M162.192,150.121c0-5.942-4.816-10.768-10.754-10.768h-32.934l-4.576,7.113h33.294v3.645h14.97V150.121z"
			/>
		<path fill="#0E4675" d="M122.222,124.902c-0.902-0.908-2.352-0.908-3.239,0l-14.447,14.451l3.226,3.244l14.451-14.456
			C123.111,127.254,123.111,125.795,122.222,124.902z"/>
	</g>
	<rect x="104.545" y="139.353" fill="#3D7A94" width="13.959" height="23.268"/>
	<path fill="#9AE1D3" d="M136.03,158.035h-36.012c-2.21,0-4.006,1.801-4.006,4.011v5.323l24.889,4.586l24.893-4.586
		C141.963,160.855,140.957,158.035,136.03,158.035z"/>
	<path fill="#83C7C3" d="M96.022,198.487c0,4.034,3.279,7.323,7.324,7.323h37.549c30.405,0,55.049-17.198,55.049-38.441H96.022
		C96.022,177.453,96.022,198.487,96.022,198.487z"/>
</g>
<g id="Rain">
	<g>
		<path fill="#9FDEF7" d="M298.705,178.171c-0.352,0-0.713-0.117-1.033-0.347c-0.762-0.57-0.918-1.648-0.332-2.41l3.004-4.016
			c0.586-0.761,1.66-0.922,2.422-0.341c0.76,0.57,0.916,1.648,0.35,2.41l-3.033,4.015
			C299.75,177.931,299.233,178.171,298.705,178.171z"/>
		<path fill="#9FDEF7" d="M291.787,187.396c-0.361,0-0.713-0.121-1.045-0.351c-0.75-0.571-0.916-1.649-0.332-2.41l3.016-4.025
			c0.576-0.761,1.66-0.907,2.42-0.342c0.752,0.581,0.918,1.659,0.342,2.42l-3.025,4.016
			C292.83,187.153,292.324,187.396,291.787,187.396z"/>
		<path fill="#9FDEF7" d="M284.869,196.608c-0.371,0-0.723-0.112-1.045-0.341c-0.762-0.581-0.908-1.659-0.342-2.42l3.025-4.016
			c0.576-0.757,1.658-0.918,2.41-0.337c0.762,0.575,0.928,1.649,0.342,2.405l-3.016,4.025
			C285.903,196.379,285.375,196.608,284.869,196.608z"/>
		<path fill="#9FDEF7" d="M277.94,205.83c-0.369,0-0.73-0.107-1.033-0.342c-0.762-0.576-0.928-1.658-0.352-2.415l3.025-4.016
			c0.564-0.761,1.658-0.922,2.42-0.341c0.762,0.57,0.906,1.648,0.332,2.41l-3.025,4.025C278.975,205.6,278.457,205.83,277.94,205.83
			z"/>
		<path fill="#9FDEF7" d="M285.453,178.171c-0.359,0-0.721-0.117-1.033-0.347c-0.762-0.57-0.928-1.648-0.352-2.41l3.035-4.016
			c0.564-0.761,1.648-0.922,2.41-0.341c0.76,0.57,0.916,1.648,0.332,2.41l-3.016,4.015
			C286.508,177.931,285.981,178.171,285.453,178.171z"/>
		<path fill="#9FDEF7" d="M278.526,187.396c-0.352,0-0.721-0.121-1.033-0.351c-0.762-0.571-0.918-1.649-0.332-2.41l3.016-4.025
			c0.574-0.761,1.648-0.907,2.41-0.342c0.76,0.581,0.916,1.659,0.35,2.42l-3.023,4.016
			C279.561,187.153,279.053,187.396,278.526,187.396z"/>
		<path fill="#9FDEF7" d="M271.598,196.608c-0.352,0-0.723-0.112-1.045-0.341c-0.75-0.581-0.906-1.659-0.322-2.42l3.025-4.016
			c0.566-0.757,1.641-0.918,2.4-0.337c0.762,0.575,0.918,1.649,0.342,2.405l-3.025,4.025
			C272.653,196.379,272.125,196.608,271.598,196.608z"/>
		<path fill="#9FDEF7" d="M264.68,205.83c-0.361,0-0.713-0.107-1.045-0.342c-0.762-0.576-0.916-1.658-0.332-2.415l3.025-4.016
			c0.566-0.761,1.648-0.922,2.4-0.341c0.762,0.57,0.918,1.648,0.352,2.41l-3.025,4.016C265.723,205.6,265.196,205.83,264.68,205.83z
			"/>
		<path fill="#9FDEF7" d="M272.203,178.171c-0.361,0-0.723-0.117-1.035-0.347c-0.762-0.57-0.918-1.648-0.352-2.41l3.025-4.016
			c0.586-0.761,1.658-0.922,2.42-0.341c0.762,0.57,0.918,1.648,0.332,2.41l-3.006,4.015
			C273.237,177.931,272.731,178.171,272.203,178.171z"/>
		<path fill="#9FDEF7" d="M265.274,187.396c-0.35,0-0.721-0.121-1.033-0.351c-0.762-0.571-0.918-1.649-0.342-2.41l3.016-4.025
			c0.586-0.761,1.658-0.907,2.42-0.342c0.76,0.581,0.916,1.659,0.342,2.42l-3.016,4.016
			C266.319,187.153,265.801,187.396,265.274,187.396z"/>
		<path fill="#9FDEF7" d="M258.346,196.608c-0.352,0-0.721-0.112-1.033-0.341c-0.762-0.581-0.928-1.659-0.352-2.42l3.025-4.016
			c0.584-0.757,1.658-0.918,2.42-0.337c0.76,0.575,0.916,1.649,0.352,2.405l-3.035,4.025
			C259.401,196.379,258.873,196.608,258.346,196.608z"/>
		<path fill="#9FDEF7" d="M251.418,205.83c-0.352,0-0.723-0.107-1.035-0.342c-0.76-0.576-0.916-1.658-0.332-2.415l3.016-4.016
			c0.576-0.761,1.65-0.922,2.41-0.341c0.762,0.57,0.918,1.648,0.352,2.41l-3.023,4.025C252.453,205.6,251.946,205.83,251.418,205.83
			z"/>
		<path fill="#9FDEF7" d="M252.024,187.396c-0.371,0-0.723-0.121-1.045-0.351c-0.752-0.571-0.916-1.649-0.342-2.41l3.025-4.025
			c0.576-0.761,1.658-0.907,2.42-0.342c0.752,0.581,0.918,1.659,0.332,2.42l-3.025,4.016
			C253.057,187.153,252.551,187.396,252.024,187.396z"/>
		<path fill="#9FDEF7" d="M245.094,196.608c-0.359,0-0.73-0.112-1.037-0.341c-0.762-0.581-0.918-1.659-0.352-2.42l3.02-4.016
			c0.576-0.757,1.658-0.918,2.41-0.337c0.762,0.575,0.928,1.649,0.352,2.405l-3.025,4.025
			C246.135,196.379,245.612,196.608,245.094,196.608z"/>
		<path fill="#9FDEF7" d="M238.172,205.83c-0.361,0-0.723-0.107-1.039-0.342c-0.762-0.576-0.913-1.658-0.342-2.415l3.02-4.016
			c0.576-0.761,1.654-0.922,2.415-0.341c0.761,0.57,0.923,1.648,0.352,2.41l-3.03,4.025
			C239.211,205.6,238.689,205.83,238.172,205.83z"/>
		<path fill="#9FDEF7" d="M238.757,187.396c-0.356,0-0.717-0.121-1.039-0.351c-0.757-0.571-0.907-1.649-0.337-2.41l3.025-4.025
			c0.57-0.761,1.648-0.907,2.42-0.342c0.761,0.581,0.906,1.659,0.341,2.42l-3.03,4.016
			C239.811,187.153,239.289,187.396,238.757,187.396z"/>
		<path fill="#9FDEF7" d="M231.834,196.608c-0.361,0-0.728-0.112-1.039-0.341c-0.757-0.581-0.918-1.659-0.337-2.42l3.015-4.016
			c0.571-0.757,1.659-0.918,2.42-0.337c0.757,0.575,0.908,1.649,0.337,2.405l-3.015,4.025
			C232.873,196.379,232.365,196.608,231.834,196.608z"/>
		<path fill="#9FDEF7" d="M224.91,205.83c-0.361,0-0.722-0.107-1.039-0.342c-0.761-0.576-0.907-1.658-0.342-2.415l3.021-4.016
			c0.581-0.761,1.659-0.922,2.415-0.341c0.761,0.57,0.922,1.648,0.352,2.41l-3.025,4.016
			C225.959,205.6,225.438,205.83,224.91,205.83z"/>
		<path fill="#9FDEF7" d="M225.511,187.396c-0.361,0-0.732-0.121-1.04-0.351c-0.771-0.571-0.922-1.649-0.351-2.41l3.03-4.025
			c0.565-0.761,1.648-0.907,2.414-0.342c0.762,0.581,0.913,1.659,0.342,2.42l-3.02,4.016
			C226.55,187.153,226.028,187.396,225.511,187.396z"/>
		<path fill="#9FDEF7" d="M218.587,196.608c-0.36,0-0.722-0.112-1.039-0.341c-0.761-0.581-0.922-1.659-0.342-2.42l3.016-4.016
			c0.571-0.757,1.659-0.918,2.42-0.337c0.761,0.575,0.917,1.649,0.342,2.405l-3.021,4.025
			C219.627,196.379,219.105,196.608,218.587,196.608z"/>
		<path fill="#9FDEF7" d="M211.65,205.83c-0.356,0-0.718-0.107-1.039-0.342c-0.757-0.576-0.908-1.658-0.337-2.415l3.025-4.016
			c0.57-0.761,1.648-0.922,2.42-0.341c0.756,0.57,0.907,1.648,0.336,2.41l-3.024,4.025C212.698,205.6,212.182,205.83,211.65,205.83z
			"/>
		<path fill="#9FDEF7" d="M291.358,151.692h-21.73c-4.197,0-7.611-3.405-7.611-7.602c0-4.2,3.414-7.606,7.611-7.606
			c0.662,0,1.307,0.088,1.912,0.239c0.801-1.156,1.99-2.02,3.396-2.396c-2.303-5.947-8.09-10.163-14.834-10.163
			c-7.582,0-13.918,5.294-15.52,12.388c-0.947-0.316-1.966-0.487-3.024-0.487c-3.259,0-6.128,1.629-7.855,4.118
			c-0.956-0.25-1.966-0.391-3.005-0.391c-6.616,0-11.974,5.357-11.974,11.968c0,1.923,0.449,3.737,1.249,5.338
			c1.41-4.357,5.489-7.494,10.305-7.494c5.152,0,9.47,3.596,10.559,8.431c0.653-0.215,1.342-0.337,2.059-0.337
			c2.219,0,4.172,1.108,5.342,2.796c0.654-0.166,1.348-0.249,2.049-0.249c2.762,0,5.211,1.381,6.695,3.489h13.25h6.246h3.064
			c6.518,0,11.826-5.299,11.826-11.832C291.367,151.834,291.358,151.76,291.358,151.692z"/>
	</g>
	<path fill="#E4F2F9" d="M301.379,136.363c-0.811,0-1.6,0.131-2.322,0.36c0-0.117,0-0.229,0-0.36
		c0-5.772-4.664-10.451-10.441-10.451c-4.977,0-9.152,3.479-10.207,8.133c-0.623-0.209-1.287-0.316-1.98-0.316
		c-2.137,0-4.029,1.068-5.162,2.707c-0.625-0.16-1.287-0.248-1.971-0.248c-4.352,0-7.865,3.513-7.865,7.859
		c0,4.348,3.514,7.865,7.865,7.865h32.084c4.293,0,7.768-3.479,7.768-7.772C309.147,139.842,305.672,136.363,301.379,136.363z"/>
	<path fill="#83D4ED" d="M243.455,136.256c-0.619-0.132-1.249-0.19-1.897-0.19c-3.259,0-6.128,1.629-7.855,4.118
		c-0.956-0.24-1.966-0.381-3.005-0.381c-6.616,0-11.974,5.357-11.974,11.968c0,1.923,0.449,3.737,1.249,5.338
		c1.41-4.357,5.489-7.494,10.305-7.494c5.152,0,9.47,3.605,10.559,8.436c0.653-0.22,1.342-0.342,2.059-0.342
		c2.219,0,4.172,1.108,5.342,2.796c0.654-0.166,1.348-0.249,2.049-0.249c2.762,0,5.211,1.381,6.695,3.489h8.977
		C253.545,160.465,244.246,149.507,243.455,136.256z"/>
	<path fill="#D7EDF9" d="M277.805,133.894c-0.449-0.098-0.898-0.156-1.387-0.156c-2.137,0-4.02,1.068-5.162,2.707
		c-0.635-0.16-1.297-0.248-1.971-0.248c-4.361,0-7.865,3.513-7.865,7.859c0,4.348,3.523,7.865,7.865,7.865h19.975
		C282.516,148.717,277.842,141.851,277.805,133.894z"/>
	<path fill="#E4F2F9" d="M250.51,160.025c-0.711,0-1.395,0.098-2.049,0.259c-1.17-1.688-3.127-2.796-5.346-2.796
		c-0.719,0-1.406,0.117-2.056,0.332c-1.093-4.83-5.405-8.436-10.563-8.436c-5.978,0-10.821,4.845-10.821,10.831
		c0,0.122,0,0.239,0.01,0.361c-0.762-0.229-1.571-0.361-2.411-0.361c-4.444,0-8.05,3.597-8.05,8.056c0,4.435,3.605,8.051,8.05,8.051
		h21.287h5.825h6.123c4.498,0,8.148-3.645,8.148-8.144C258.658,163.685,255.008,160.025,250.51,160.025z"/>
	<path fill="#D7EDF9" d="M222.593,152.834c-1.81,1.938-2.917,4.533-2.917,7.382c0,0.122,0,0.239,0.01,0.361
		c-0.762-0.229-1.571-0.361-2.411-0.361c-4.444,0-8.05,3.597-8.05,8.056c0,4.435,3.605,8.051,8.05,8.051h21.287h0.718
		C229.639,172.838,222.71,163.656,222.593,152.834z"/>
</g>
<g id="Glass" opacity="0.3">
	<circle id="Glass_1_" fill="#64B5F6" cx="201.399" cy="211.845" r="129.898"/>
	<path id="Reflection" fill="#BBDEFB" d="M201.399,121.916c-26.971,0-51.951,11.979-68.916,31.963
		c-4.016,4.02-3.02,11.025,0.98,14.012c4.016,3.967,11.012,2.967,14.008-1.029c13.959-15.988,32.914-24.961,53.928-24.961
		c21.004,0,39.969,8.973,53.941,24.98c2.031,1.986,4.996,3.977,8.002,3.977c1.99,0,4.996-0.99,6.012-1.99
		c3.98-3.963,3.98-10.969,0.975-14.988C253.35,133.894,228.369,121.916,201.399,121.916z"/>
	<g>
		<rect x="229.867" y="223.746" fill="none" width="131.406" height="53.264"/>
		<line fill="none" x1="229.867" y1="268.138" x2="361.274" y2="268.138"/>
		<line fill="none" x1="229.867" y1="259.25" x2="361.274" y2="259.25"/>
		<line fill="none" x1="229.867" y1="250.375" x2="361.274" y2="250.375"/>
		<line fill="none" x1="229.867" y1="241.514" x2="361.274" y2="241.514"/>
		<line fill="none" x1="229.867" y1="232.621" x2="361.274" y2="232.621"/>
		<line fill="none" x1="339.358" y1="223.746" x2="339.358" y2="277.01"/>
		<line fill="none" x1="317.481" y1="223.746" x2="317.481" y2="277.01"/>
		<line fill="none" x1="295.563" y1="223.746" x2="295.563" y2="277.01"/>
		<line fill="none" x1="273.647" y1="223.746" x2="273.647" y2="277.01"/>
		<line fill="none" x1="251.78" y1="223.746" x2="251.78" y2="277.01"/>
	</g>
</g>
<g id="Magnifying_Glass">
	
		<rect x="347.341" y="292.623" transform="matrix(0.7071 -0.7071 0.7071 0.7071 -159.3993 370.3261)" fill="#616161" width="39.965" height="169.904"/>
	<path fill="#616161" d="M201.399,51.97c-88.29,0-159.875,71.585-159.875,159.875c0,88.291,71.585,159.875,159.875,159.875
		c88.291,0,159.875-71.584,159.875-159.875C361.274,123.555,289.69,51.97,201.399,51.97z M201.399,341.744
		c-71.746,0-129.898-58.158-129.898-129.898c0-71.746,58.152-129.898,129.898-129.898c71.74,0,129.898,58.152,129.898,129.898
		C331.297,283.586,273.139,341.744,201.399,341.744z"/>
	
		<rect x="363.452" y="332.996" transform="matrix(0.7071 -0.7071 0.7071 0.7071 -166.6113 386.6785)" fill="#37474F" width="39.964" height="122.903"/>
</g>
</svg>
