<?xml version="1.0" encoding="utf-8"?>
<!-- Generator: Adobe Illustrator 16.0.0, SVG Export Plug-In . SVG Version: 6.00 Build 0)  -->
<!DOCTYPE svg PUBLIC "-//W3C//DTD SVG 1.1//EN" "http://www.w3.org/Graphics/SVG/1.1/DTD/svg11.dtd">
<svg version="1.1" xmlns="http://www.w3.org/2000/svg" xmlns:xlink="http://www.w3.org/1999/xlink" x="0px" y="0px" width="470px"
	 height="320px" viewBox="277 90 470 320" enable-background="new 277 90 470 320" xml:space="preserve">
<g id="Icon">
	<circle id="White" fill="#FFFFFF" cx="387.207" cy="232.074" r="64.949"/>
	<g id="Recycle">
		<g>
			<path fill="#6AC259" d="M348.321,237.295c0,0.005-0.005,0.005-0.005,0.01l-0.269,0.465c-0.005,0.01-0.01,0.02-0.015,0.029
				l-4.623,7.999l9.782,5.645l4.487-7.775l0.561-0.973l1.354-2.344l3.257-5.65h-9.783
				C351.085,234.712,349.326,235.741,348.321,237.295z"/>
			<path fill="#6AC259" d="M371.009,237.536c-0.479-0.829-1.173-1.556-2.066-2.068c-0.895-0.515-1.864-0.756-2.825-0.756h-9.783
				h-3.262c1.988,0,3.737,1.025,4.747,2.574l0.306,0.529l7.872,13.634l9.783-5.645L371.009,237.536z"/>
			<polygon fill="#6AC259" points="361.302,251.449 372.524,251.449 378.135,241.738 			"/>
			<path fill="#6AC259" d="M383.955,259.953c0,0-0.005,0-0.01-0.009l-0.271-0.46c0-0.02-0.01-0.02-0.015-0.028l-4.616-8.007
				l-9.783,5.641l4.486,7.781l0.564,0.972l1.349,2.347l3.261,5.65l4.892-8.471C384.814,263.641,384.799,261.612,383.955,259.953z"/>
			<path fill="#6AC259" d="M372.404,279.488c0.959,0,1.932-0.243,2.822-0.76c0.896-0.509,1.588-1.23,2.068-2.069l4.892-8.47
				l1.632-2.815c-0.993,1.718-2.752,2.723-4.601,2.815h-0.62h-15.743v11.305h9.549V279.488L372.404,279.488z"/>
			<polygon fill="#6AC259" points="365.205,264.129 359.598,273.84 365.205,283.558 			"/>
			<path fill="#6AC259" d="M356.335,268.189h-8.981h-1.125h-2.708h-6.513l4.891,8.47c0.997,1.728,2.766,2.731,4.615,2.829
				c0.005,0,0.005,0,0.01,0h0.539c0.01,0,0.021,0,0.036,0h9.232L356.335,268.189L356.335,268.189z"/>
			<path fill="#6AC259" d="M335.372,259.719c-0.48,0.83-0.754,1.795-0.754,2.82c0,1.035,0.278,1.996,0.754,2.824l4.892,8.467
				l1.635,2.818c-0.996-1.716-0.986-3.746-0.146-5.395l0.31-0.527l7.875-13.637l-9.783-5.641L335.372,259.719z"/>
			<polygon fill="#6AC259" points="352.273,261.164 346.67,251.449 335.453,251.449 			"/>
		</g>
		
			<sodipodi:namedview  id="namedview16" objecttolerance="10" bordercolor="#666666" borderopacity="1" pagecolor="#ffffff" gridtolerance="10" guidetolerance="10" showgrid="false" inkscape:zoom="8" inkscape:cx="4" inkscape:cy="21.696376" inkscape:current-layer="layer3" inkscape:window-maximized="1" inkscape:window-y="-8" inkscape:window-x="-8" inkscape:window-height="705" inkscape:window-width="1366" inkscape:pageshadow="2" inkscape:pageopacity="0" inkscape:snap-intersection-paths="false">
			</sodipodi:namedview>
	</g>
	<g id="Toilet">
		<path fill="#BAC2CF" d="M425.354,270.21c-0.401-0.259-0.908-0.304-1.328-0.108c-1.57,0.697-3.259,1.045-4.995,1.045
			c-5.938,0-11.285-4.207-12.454-10.002c-0.129-0.655-0.705-1.122-1.358-1.122h-1.674v-18.26c0-0.769-0.625-1.388-1.389-1.388
			h-11.126c-0.771,0-1.39,0.625-1.39,1.388v16.875c0,1.073,0.105,2.098,0.31,3.023c0,0.011,0,0.02,0,0.029s0.005,0.01,0.005,0.02
			l0,0l0,0c0.72,3.498,2.658,6.656,5.472,8.915c1.508,1.194,2.117,3.04,1.549,4.698l-1.693,5.113
			c-0.142,0.429-0.07,0.898,0.193,1.258c0.261,0.357,0.681,0.572,1.124,0.572h27.994c0.771,0,1.391-0.621,1.391-1.391v-9.504
			C425.978,270.902,425.743,270.463,425.354,270.21z"/>
		<path fill="#E0E4EC" d="M404.937,243.151h-15.298v-4.172c0-2.303,1.869-4.172,4.171-4.172h11.126c2.299,0,4.172,1.874,4.172,4.172
			C409.109,241.276,407.236,243.151,404.937,243.151z"/>
		<path fill="#D1D7E3" d="M419.031,273.922c-7.262,0-13.742-5.137-15.178-12.232c-0.084-0.408,0.025-0.828,0.291-1.16
			c0.264-0.318,0.658-0.507,1.079-0.507h27.439c0.419,0,0.8,0.185,1.068,0.507s0.371,0.742,0.298,1.16
			c-0.962,4.86-4.284,8.959-8.87,10.955C423.216,273.492,421.157,273.922,419.031,273.922z"/>
		<path fill="#E0E4EC" d="M432.929,262.802h-27.992c-2.303,0-4.171-1.873-4.171-4.176l0,0c0-2.303,1.868-4.17,4.171-4.17h27.992
			c2.305,0,4.178,1.877,4.178,4.17C437.107,260.929,435.234,262.802,432.929,262.802z"/>
	</g>
	<g id="Sink">
		<g>
			<path fill="#0E4675" d="M367.703,201.212c0-2.971-2.409-5.384-5.377-5.384H345.86l-2.289,3.557h16.647v1.822h7.485V201.212z"/>
			<path fill="#0E4675" d="M347.719,188.603c-0.451-0.455-1.176-0.455-1.62,0l-7.224,7.225l1.613,1.622l7.226-7.228
				C348.163,189.779,348.163,189.049,347.719,188.603z"/>
		</g>
		<rect x="338.88" y="195.828" fill="#3D7A94" width="6.98" height="11.634"/>
		<path fill="#9AE1D3" d="M354.623,205.169h-18.006c-1.105,0-2.003,0.9-2.003,2.006v2.661l12.445,2.293l12.446-2.293
			C357.589,206.579,357.086,205.169,354.623,205.169z"/>
		<path fill="#83C7C3" d="M334.618,225.395c0,2.017,1.64,3.662,3.663,3.662h18.774c15.203,0,27.524-8.599,27.524-19.221h-49.961
			C334.618,214.878,334.618,225.395,334.618,225.395z"/>
	</g>
	<g id="Rain">
		<g>
			<path fill="#9FDEF7" d="M435.96,215.237c-0.176,0-0.356-0.059-0.517-0.173c-0.381-0.285-0.459-0.824-0.166-1.205l1.502-2.008
				c0.293-0.38,0.83-0.461,1.211-0.17c0.38,0.285,0.458,0.824,0.175,1.205l-1.518,2.008
				C436.483,215.118,436.224,215.237,435.96,215.237z"/>
			<path fill="#9FDEF7" d="M432.501,219.85c-0.182,0-0.357-0.061-0.522-0.175c-0.375-0.286-0.458-0.824-0.167-1.205l1.509-2.013
				c0.288-0.38,0.83-0.454,1.21-0.17c0.376,0.29,0.459,0.829,0.171,1.21l-1.513,2.008C433.023,219.729,432.77,219.85,432.501,219.85
				z"/>
			<path fill="#9FDEF7" d="M429.042,224.456c-0.186,0-0.361-0.056-0.523-0.17c-0.38-0.291-0.453-0.829-0.17-1.209l1.513-2.008
				c0.288-0.378,0.829-0.458,1.204-0.168c0.382,0.287,0.465,0.825,0.171,1.202l-1.507,2.013
				C429.559,224.341,429.295,224.456,429.042,224.456z"/>
			<path fill="#9FDEF7" d="M425.577,229.067c-0.185,0-0.365-0.054-0.517-0.171c-0.38-0.288-0.464-0.829-0.176-1.208l1.513-2.008
				c0.281-0.38,0.829-0.461,1.21-0.17c0.38,0.285,0.453,0.824,0.165,1.205l-1.512,2.013
				C426.095,228.952,425.835,229.067,425.577,229.067z"/>
			<path fill="#9FDEF7" d="M429.334,215.237c-0.18,0-0.36-0.059-0.517-0.173c-0.381-0.285-0.464-0.824-0.176-1.205l1.518-2.008
				c0.282-0.38,0.824-0.461,1.205-0.17c0.38,0.285,0.458,0.824,0.166,1.205l-1.508,2.008
				C429.862,215.118,429.597,215.237,429.334,215.237z"/>
			<path fill="#9FDEF7" d="M425.87,219.85c-0.176,0-0.36-0.061-0.517-0.175c-0.382-0.286-0.459-0.824-0.167-1.205l1.509-2.013
				c0.287-0.38,0.824-0.454,1.205-0.17c0.38,0.29,0.458,0.829,0.175,1.21l-1.512,2.008
				C426.388,219.729,426.134,219.85,425.87,219.85z"/>
			<path fill="#9FDEF7" d="M422.406,224.456c-0.176,0-0.361-0.056-0.522-0.17c-0.375-0.291-0.453-0.829-0.161-1.209l1.513-2.008
				c0.282-0.378,0.82-0.458,1.2-0.168c0.38,0.287,0.459,0.825,0.171,1.202l-1.513,2.013
				C422.933,224.341,422.67,224.456,422.406,224.456z"/>
			<path fill="#9FDEF7" d="M418.948,229.067c-0.181,0-0.356-0.054-0.522-0.171c-0.381-0.288-0.458-0.829-0.166-1.208l1.513-2.008
				c0.282-0.38,0.824-0.461,1.2-0.17c0.381,0.285,0.459,0.824,0.175,1.205l-1.512,2.008
				C419.468,228.952,419.205,229.067,418.948,229.067z"/>
			<path fill="#9FDEF7" d="M422.709,215.237c-0.181,0-0.362-0.059-0.519-0.173c-0.38-0.285-0.458-0.824-0.175-1.205l1.513-2.008
				c0.293-0.38,0.829-0.461,1.209-0.17c0.382,0.285,0.46,0.824,0.167,1.205l-1.503,2.008
				C423.226,215.118,422.972,215.237,422.709,215.237z"/>
			<path fill="#9FDEF7" d="M419.244,219.85c-0.175,0-0.36-0.061-0.517-0.175c-0.381-0.286-0.459-0.824-0.171-1.205l1.508-2.013
				c0.293-0.38,0.829-0.454,1.21-0.17c0.38,0.29,0.458,0.829,0.17,1.21l-1.507,2.008C419.767,219.729,419.508,219.85,419.244,219.85
				z"/>
			<path fill="#9FDEF7" d="M415.781,224.456c-0.176,0-0.36-0.056-0.517-0.17c-0.382-0.291-0.464-0.829-0.176-1.209l1.513-2.008
				c0.292-0.378,0.828-0.458,1.21-0.168c0.38,0.287,0.458,0.825,0.176,1.202l-1.519,2.013
				C416.307,224.341,416.044,224.456,415.781,224.456z"/>
			<path fill="#9FDEF7" d="M412.316,229.067c-0.176,0-0.36-0.054-0.517-0.171c-0.38-0.288-0.458-0.829-0.166-1.208l1.507-2.008
				c0.289-0.38,0.826-0.461,1.206-0.17c0.38,0.285,0.458,0.824,0.176,1.205l-1.512,2.013
				C412.834,228.952,412.58,229.067,412.316,229.067z"/>
			<path fill="#9FDEF7" d="M412.619,219.85c-0.186,0-0.362-0.061-0.522-0.175c-0.376-0.286-0.458-0.824-0.172-1.205l1.514-2.013
				c0.287-0.38,0.829-0.454,1.209-0.17c0.377,0.29,0.46,0.829,0.167,1.21l-1.513,2.008
				C413.136,219.729,412.882,219.85,412.619,219.85z"/>
			<path fill="#9FDEF7" d="M409.155,224.456c-0.18,0-0.366-0.056-0.519-0.17c-0.381-0.291-0.459-0.829-0.176-1.209l1.51-2.008
				c0.287-0.378,0.829-0.458,1.205-0.168c0.381,0.287,0.464,0.825,0.176,1.202l-1.513,2.013
				C409.675,224.341,409.413,224.456,409.155,224.456z"/>
			<path fill="#9FDEF7" d="M405.694,229.067c-0.181,0-0.361-0.054-0.521-0.171c-0.38-0.288-0.455-0.829-0.17-1.208l1.51-2.008
				c0.287-0.38,0.827-0.461,1.207-0.17c0.381,0.285,0.462,0.824,0.176,1.205l-1.515,2.013
				C406.213,228.952,405.951,229.067,405.694,229.067z"/>
			<path fill="#9FDEF7" d="M405.986,219.85c-0.178,0-0.357-0.061-0.52-0.175c-0.378-0.286-0.453-0.824-0.168-1.205l1.513-2.013
				c0.285-0.38,0.824-0.454,1.21-0.17c0.381,0.29,0.453,0.829,0.17,1.21l-1.514,2.008
				C406.513,219.729,406.252,219.85,405.986,219.85z"/>
			<path fill="#9FDEF7" d="M402.525,224.456c-0.181,0-0.363-0.056-0.52-0.17c-0.379-0.291-0.459-0.829-0.169-1.209l1.508-2.008
				c0.285-0.378,0.829-0.458,1.21-0.168c0.379,0.287,0.454,0.825,0.168,1.202l-1.507,2.013
				C403.044,224.341,402.79,224.456,402.525,224.456z"/>
			<path fill="#9FDEF7" d="M399.063,229.067c-0.181,0-0.36-0.054-0.52-0.171c-0.381-0.288-0.454-0.829-0.171-1.208l1.51-2.008
				c0.291-0.38,0.83-0.461,1.208-0.17c0.38,0.285,0.461,0.824,0.176,1.205l-1.513,2.008
				C399.587,228.952,399.326,229.067,399.063,229.067z"/>
			<path fill="#9FDEF7" d="M399.363,219.85c-0.18,0-0.366-0.061-0.52-0.175c-0.386-0.286-0.461-0.824-0.176-1.205l1.516-2.013
				c0.283-0.38,0.824-0.454,1.207-0.17c0.381,0.29,0.457,0.829,0.171,1.21l-1.51,2.008
				C399.882,219.729,399.621,219.85,399.363,219.85z"/>
			<path fill="#9FDEF7" d="M395.901,224.456c-0.181,0-0.361-0.056-0.52-0.17c-0.38-0.291-0.461-0.829-0.171-1.209l1.508-2.008
				c0.286-0.378,0.83-0.458,1.209-0.168c0.381,0.287,0.459,0.825,0.171,1.202l-1.509,2.013
				C396.421,224.341,396.16,224.456,395.901,224.456z"/>
			<path fill="#9FDEF7" d="M392.432,229.067c-0.179,0-0.359-0.054-0.52-0.171c-0.378-0.288-0.454-0.829-0.169-1.208l1.513-2.008
				c0.285-0.38,0.824-0.461,1.21-0.17c0.378,0.285,0.454,0.824,0.168,1.205l-1.512,2.013
				C392.957,228.952,392.698,229.067,392.432,229.067z"/>
			<path fill="#9FDEF7" d="M432.286,201.998h-10.865c-2.099,0-3.806-1.703-3.806-3.801c0-2.1,1.707-3.803,3.806-3.803
				c0.331,0,0.653,0.044,0.956,0.12c0.4-0.578,0.995-1.01,1.698-1.198c-1.151-2.974-4.045-5.082-7.417-5.082
				c-3.791,0-6.959,2.647-7.76,6.194c-0.474-0.158-0.983-0.243-1.513-0.243c-1.629,0-3.063,0.814-3.928,2.059
				c-0.478-0.125-0.982-0.195-1.502-0.195c-3.309,0-5.987,2.679-5.987,5.984c0,0.961,0.225,1.868,0.625,2.668
				c0.705-2.179,2.745-3.747,5.152-3.747c2.576,0,4.735,1.798,5.279,4.215c0.327-0.107,0.671-0.168,1.029-0.168
				c1.109,0,2.086,0.554,2.671,1.398c0.327-0.083,0.674-0.124,1.023-0.124c1.382,0,2.606,0.69,3.348,1.744h6.626h3.123h1.532
				c3.258,0,5.913-2.649,5.913-5.916C432.291,202.069,432.286,202.032,432.286,201.998z"/>
		</g>
		<path fill="#E4F2F9" d="M437.296,194.333c-0.404,0-0.799,0.065-1.16,0.181c0-0.059,0-0.115,0-0.181
			c0-2.886-2.333-5.226-5.221-5.226c-2.488,0-4.576,1.739-5.104,4.066c-0.312-0.104-0.644-0.158-0.99-0.158
			c-1.068,0-2.015,0.535-2.581,1.354c-0.313-0.08-0.644-0.124-0.985-0.124c-2.176,0-3.933,1.756-3.933,3.93
			c0,2.174,1.757,3.933,3.933,3.933h16.041c2.147,0,3.885-1.739,3.885-3.886C441.181,196.073,439.444,194.333,437.296,194.333z"/>
		<path fill="#83D4ED" d="M408.335,194.28c-0.31-0.066-0.625-0.095-0.949-0.095c-1.629,0-3.063,0.814-3.928,2.059
			c-0.478-0.12-0.982-0.19-1.502-0.19c-3.309,0-5.987,2.679-5.987,5.984c0,0.961,0.225,1.869,0.625,2.669
			c0.705-2.179,2.745-3.748,5.152-3.748c2.576,0,4.735,1.803,5.279,4.218c0.327-0.11,0.671-0.17,1.029-0.17
			c1.109,0,2.086,0.554,2.671,1.398c0.327-0.083,0.674-0.125,1.023-0.125c1.382,0,2.606,0.69,3.348,1.744h4.489
			C413.38,206.385,408.73,200.905,408.335,194.28z"/>
		<path fill="#D7EDF9" d="M425.51,193.099c-0.225-0.048-0.449-0.078-0.694-0.078c-1.067,0-2.009,0.534-2.58,1.354
			c-0.318-0.08-0.648-0.124-0.986-0.124c-2.18,0-3.932,1.757-3.932,3.93c0,2.174,1.762,3.933,3.932,3.933h9.987
			C427.865,200.51,425.529,197.077,425.51,193.099z"/>
		<path fill="#E4F2F9" d="M411.863,206.164c-0.355,0-0.697,0.049-1.024,0.13c-0.585-0.844-1.563-1.398-2.673-1.398
			c-0.359,0-0.703,0.059-1.027,0.166c-0.547-2.415-2.703-4.218-5.281-4.218c-2.989,0-5.412,2.422-5.412,5.416
			c0,0.061,0,0.12,0.005,0.181c-0.381-0.115-0.786-0.181-1.206-0.181c-2.223,0-4.025,1.798-4.025,4.028
			c0,2.218,1.803,4.026,4.025,4.026h10.643h2.912h3.063c2.249,0,4.074-1.822,4.074-4.072
			C415.937,207.994,414.112,206.164,411.863,206.164z"/>
		<path fill="#D7EDF9" d="M397.904,202.569c-0.905,0.969-1.458,2.267-1.458,3.691c0,0.061,0,0.12,0.005,0.181
			c-0.381-0.115-0.786-0.181-1.206-0.181c-2.223,0-4.025,1.798-4.025,4.028c0,2.218,1.803,4.026,4.025,4.026h10.643h0.359
			C401.427,212.571,397.962,207.98,397.904,202.569z"/>
	</g>
	<g id="Glass" opacity="0.3">
		<circle id="Glass_1_" fill="#64B5F6" cx="387.307" cy="232.074" r="64.949"/>
		<path id="Reflection" fill="#BBDEFB" d="M387.307,187.11c-13.486,0-25.976,5.989-34.458,15.982c-2.008,2.01-1.51,5.512,0.49,7.005
			c2.008,1.983,5.506,1.483,7.004-0.515c6.979-7.994,16.457-12.48,26.964-12.48c10.502,0,19.984,4.486,26.971,12.49
			c1.015,0.993,2.498,1.988,4.001,1.988c0.995,0,2.498-0.495,3.006-0.995c1.99-1.981,1.99-5.484,0.487-7.494
			C413.282,193.099,400.792,187.11,387.307,187.11z"/>
		<g>
			<rect x="401.541" y="238.025" fill="none" width="65.703" height="26.631"/>
			<line fill="none" x1="401.541" y1="260.22" x2="467.244" y2="260.22"/>
			<line fill="none" x1="401.541" y1="255.777" x2="467.244" y2="255.777"/>
			<line fill="none" x1="401.541" y1="251.34" x2="467.244" y2="251.34"/>
			<line fill="none" x1="401.541" y1="246.909" x2="467.244" y2="246.909"/>
			<line fill="none" x1="401.541" y1="242.463" x2="467.244" y2="242.463"/>
			<line fill="none" x1="456.286" y1="238.025" x2="456.286" y2="264.656"/>
			<line fill="none" x1="445.347" y1="238.025" x2="445.347" y2="264.656"/>
			<line fill="none" x1="434.389" y1="238.025" x2="434.389" y2="264.656"/>
			<line fill="none" x1="423.431" y1="238.025" x2="423.431" y2="264.656"/>
			<line fill="none" x1="412.497" y1="238.025" x2="412.497" y2="264.656"/>
		</g>
	</g>
	<g id="Magnifying_Glass">
		
			<rect x="460.278" y="272.463" transform="matrix(0.7071 -0.7071 0.7071 0.7071 -84.9608 424.755)" fill="#616161" width="19.982" height="84.952"/>
		<path fill="#616161" d="M387.307,152.137c-44.145,0-79.938,35.792-79.938,79.938c0,44.146,35.792,79.937,79.938,79.937
			c44.146,0,79.938-35.791,79.938-79.937C467.244,187.929,431.452,152.137,387.307,152.137z M387.307,297.023
			c-35.874,0-64.95-29.078-64.95-64.949c0-35.873,29.076-64.949,64.95-64.949c35.87,0,64.949,29.076,64.949,64.949
			C452.256,267.945,423.177,297.023,387.307,297.023z"/>
		
			<rect x="468.333" y="292.649" transform="matrix(0.7071 -0.7072 0.7072 0.7071 -88.5549 432.9799)" fill="#37474F" width="19.983" height="61.451"/>
	</g>
</g>
<g id="Logotipo">
	<text id="Texto_1_" transform="matrix(1 0 0 1 515.6321 234.7024)"><tspan x="0" y="0" font-family="'MyriadPro-Regular'" font-size="54.3045">Inspetor </tspan><tspan x="36.899" y="65.165" font-family="'MyriadPro-Regular'" font-size="54.3045">Mups</tspan></text>
</g>
</svg>
