<svg xmlns="http://www.w3.org/2000/svg" enable-background="new 0 0 48 48" viewBox="0 0 48 48" x="0px" y="0px" width="48px" height="48px" version="1.1" xmlns:xml="http://www.w3.org/XML/1998/namespace" xml:space="preserve" xmlns:xlink="http://www.w3.org/1999/xlink">
<path fill="#1e88e5" d="M 33 12.572 C 33 7.838 28.97 4 23.999 4 l 0 0 c -4.971 0 -9 3.838 -9 8.572 v 6.855 c 0 4.734 4.029 8.572 9 8.572 l 0 0 C 28.97 28 33 24.162 33 19.428 V 12.572 Z" />
<g>
	<path fill="#3f51b5" d="M 19 25 v -1 c 0 -0.553 -0.447 -1 -1 -1 h -1 c -0.553 0 -1 0.447 -1 1 v 1 H 19 Z" />
	<path fill="#3f51b5" d="M 32 25 v -1 c 0 -0.553 -0.447 -1 -1 -1 h -1 c -0.553 0 -1 0.447 -1 1 v 1 H 32 Z" />
</g>
<g>
	<polygon fill="#64b5f6" points="29,44 19,44 20,34 28,34" />
	<path fill="#64b5f6" d="M 34 28 c 0 0.553 -0.447 1 -1 1 H 15 c -0.553 0 -1 -0.447 -1 -1 v -2 c 0 -0.553 0.447 -1 1 -1 h 18 c 0.553 0 1 0.447 1 1 V 28 Z" />
</g>
<g>
	<path fill="#bbdefb" d="M 29.251 19.273 c 0 2.812 -2.352 5.091 -5.251 5.091 l 0 0 c -2.899 0 -5.251 -2.279 -5.251 -5.091 v -6.909 c 0 -2.812 2.352 -5.091 5.251 -5.091 l 0 0 c 2.899 0 5.251 2.279 5.251 5.091 V 19.273 Z" />
	<path fill="#bbdefb" d="M 15.059 29 c 0.498 4.5 4.309 8 8.941 8 c 4.633 0 8.443 -3.5 8.941 -8 H 15.059 Z" />
</g>
</svg>