<?xml version="1.0" encoding="UTF-8" standalone="no"?>
<!-- Created with Inkscape (http://www.inkscape.org/) -->

<svg
   xmlns:dc="http://purl.org/dc/elements/1.1/"
   xmlns:cc="http://creativecommons.org/ns#"
   xmlns:rdf="http://www.w3.org/1999/02/22-rdf-syntax-ns#"
   xmlns:svg="http://www.w3.org/2000/svg"
   xmlns="http://www.w3.org/2000/svg"
   xmlns:sodipodi="http://sodipodi.sourceforge.net/DTD/sodipodi-0.dtd"
   xmlns:inkscape="http://www.inkscape.org/namespaces/inkscape"
   width="700mm"
   height="175mm"
   viewBox="0 0 2480.3151 620.07876"
   id="svg3450"
   version="1.1"
   inkscape:version="0.91 r13725"
   sodipodi:docname="tubes-top.svg">
  <defs
     id="defs3452">
    <inkscape:perspective
       sodipodi:type="inkscape:persp3d"
       inkscape:vp_x="0 : 177.16537 : 1"
       inkscape:vp_y="0 : 1000.0001 : 0"
       inkscape:vp_z="1594.4883 : 177.16537 : 1"
       inkscape:persp3d-origin="797.24413 : 118.11024 : 1"
       id="perspective3360" />
  </defs>
  <sodipodi:namedview
     id="base"
     pagecolor="#ffffff"
     bordercolor="#666666"
     borderopacity="1.0"
     inkscape:pageopacity="0.0"
     inkscape:pageshadow="2"
     inkscape:zoom="0.25"
     inkscape:cx="1133.8787"
     inkscape:cy="1021.2273"
     inkscape:document-units="px"
     inkscape:current-layer="layer2"
     showgrid="false"
     showguides="true"
     inkscape:window-width="1366"
     inkscape:window-height="705"
     inkscape:window-x="1358"
     inkscape:window-y="-8"
     inkscape:window-maximized="1" />
  <metadata
     id="metadata3455">
    <rdf:RDF>
      <cc:Work
         rdf:about="">
        <dc:format>image/svg+xml</dc:format>
        <dc:type
           rdf:resource="http://purl.org/dc/dcmitype/StillImage" />
        <dc:title></dc:title>
      </cc:Work>
    </rdf:RDF>
  </metadata>
  <g
     inkscape:groupmode="layer"
     id="layer3"
     inkscape:label="Behind"
     style="display:none"
     sodipodi:insensitive="true"
     transform="translate(0,-797.24415)">
    <path
       style="fill:#ffffff"
       d="m 517.80666,28.222777 0,28 224.38675,0 0,-28 -224.38675,0 z"
       id="path3586-6-9-3-9-0-0"
       inkscape:connector-curvature="0" />
  </g>
  <g
     inkscape:groupmode="layer"
     id="layer2"
     inkscape:label="Tubes"
     style="display:inline"
     transform="translate(0,-797.24415)">
    <path
       style="display:inline;fill:#174f65"
       d="m 85.730469,866.24554 0,-56 -61.730469,0 0,-13 -24,0 0,84 24,0 0,-15 61.730469,0 z"
       id="path3586-6"
       inkscape:connector-curvature="0" />
    <path
       style="display:inline;fill:#174f65"
       d="m 2398.3135,1032.5297 0,26 14,0 0,5.793 57,0 0,-5.793 11,0 0,-26 -82,0 z"
       id="path3369"
       inkscape:connector-curvature="0" />
    <path
       style="display:inline;fill:#174f65"
       d="m 2469.3135,1061.1407 -57,0 0,103.9964 57,0 0,-103.9964 z"
       id="path3367"
       inkscape:connector-curvature="0" />
    <path
       style="display:inline;fill:#174f65"
       d="m 2468.2552,970.83335 -57.2989,0 0,30.23005 57.2989,0 0,-30.23005 z"
       id="path3365"
       inkscape:connector-curvature="0" />
    <path
       style="display:inline;fill:#174f65"
       d="m 2468.2552,941.33335 -57.2989,0 0,30.2305 57.2989,0 0,-30.2305 z"
       id="path3363"
       inkscape:connector-curvature="0" />
    <path
       style="display:inline;fill:#174f65"
       d="m 2468.2552,908.38335 -57.2989,0 0,33.8553 57.2989,0 0,-33.8553 z"
       id="path3361"
       inkscape:connector-curvature="0" />
    <path
       style="display:inline;fill:#174f65"
       d="m 2341.4619,797.78654 0,81.7988 24.5,0 0,-12.2988 45,0 0,14.4941 57.2989,0 0,-38.9941 c 0,-18.1 -14.6992,-32.7012 -32.6992,-32.7012 l -69.5997,0 0,-12.2988 -24.5,0 z"
       id="path3359"
       inkscape:connector-curvature="0" />
    <path
       style="display:inline;fill:#174f65"
       d="m 2468.2608,880.78064 -57.2989,0 0,31.23011 57.2989,0 0,-31.23011 z"
       id="path3357"
       inkscape:connector-curvature="0" />
    <path
       style="display:inline;fill:#174f65"
       d="m 2468.2608,1000.7098 -57.2989,0 0,0.2754 -12.3007,0 0,24.5 81.8007,0 0,-24.5 -12.2011,0 0,-0.2754 z"
       id="path3355"
       inkscape:connector-curvature="0" />
    <path
       style="display:inline;fill:#174f65"
       d="m 2244.1453,866.30824 0,-56 61.7305,0 0,-13 24,0 0,84 -24,0 0,-15 -61.7305,0 z"
       id="polygon3432-3"
       inkscape:connector-curvature="0" />
    <path
       id="path3659-6-9-7"
       style="display:inline;fill:#174f65"
       d="m 2184.9686,810.25324 -167.4923,0 0,56 167.4923,0 z m -558.8809,55.9961 168.6798,0 0,0.01 224.3867,0 0,-56 -54.2291,0 -170.0814,0 0,-0.01 -168.756,0 z m 349.5477,-55.9961 -167.4922,0 0,56 167.4922,0 z m -558.8807,55.9961 168.6797,0 0,0.01 224.3867,0 0,-56 -54.229,0 -170.0815,0 0,-0.01 -168.7559,0 z m 0.3551,-55.9999 -167.4922,0 0,56 167.4922,0 0,-56 z m -558.8807,55.9961 168.6797,0 0,0.01 224.3867,0 0,-56 -224.3105,0 0,-0.01 -168.7559,0 0,56 z"
       inkscape:connector-curvature="0" />
    <path
       id="path3659-6-9-7-0"
       style="display:inline;fill:#174f65"
       d="m 2285.8698,810.25324 -168.0307,0 0,56 168.0307,0 z m -560.6772,55.9961 169.2219,0 0,0.01 225.1079,0 0,-56 -54.4034,0 -170.628,0 0,-0.01 -169.2984,0 z m 350.6711,-55.9961 -168.0305,0 0,56 168.0305,0 z m -560.6769,55.9961 169.2218,0 0,0.01 225.1079,0 0,-56 -54.4033,0 -170.6281,0 0,-0.01 -169.2983,0 z m 0.3563,-55.9999 -168.0305,0 0,56 168.0305,0 0,-56 z m -560.67702,55.9961 169.22182,0 0,0.01 225.108,0 0,-56 -225.0316,0 0,-0.01 -169.29822,0 0,56 z m 454.79672,-55.9923 -168.0305,0 0,56 168.0305,0 z m -560.67698,55.9961 169.22188,0 0,0.01 225.1078,0 0,-56 -54.4033,0 -170.6281,0 0,-0.01 -169.29828,0 z m 350.67108,-55.9961 -168.0305,0 0,56 168.0305,0 z m -560.67687,55.9961 169.22182,0 0,0.01 225.10785,0 0,-56 -54.40336,0 -170.62808,0 0,-0.01 -169.29823,0 z m 0.35621,-55.9999 -168.0305,0 0,56 168.0305,0 0,-56 z m -560.67684,55.9961 169.22181,0 0,0.01 225.10787,0 0,-56 -225.03145,0 0,-0.01 -169.29823,0 0,56 z"
       inkscape:connector-curvature="0" />
    <path
       inkscape:connector-curvature="0"
       style="display:inline;fill:#174f65"
       d="m 2469.3133,1164.2998 -57,0 0,100.8144 57,0 0,-100.8144 z"
       id="path3367-5" />
    <path
       inkscape:connector-curvature="0"
       style="display:inline;fill:#174f65"
       d="m 2469.3104,1248.6175 -57.0001,0 0,100.8144 57.0001,0 0,-100.8144 z"
       id="path3367-5-1" />
    <path
       inkscape:connector-curvature="0"
       style="display:inline;fill:#174f65"
       d="m 2469.3129,1348.7907 -57.0002,0 0,100.8144 57.0002,0 0,-100.8144 z"
       id="path3367-5-1-5" />
  </g>
  <g
     inkscape:label="Vents"
     inkscape:groupmode="layer"
     id="layer1"
     transform="translate(0,-432.28337)"
     style="display:inline"
     sodipodi:insensitive="true">
    <g
       id="g3420"
       transform="translate(15.511485,-472.43308)">
      <path
         style="fill:#174f65"
         inkscape:connector-curvature="0"
         d="m 926.77677,-324.89508 0,-69.6 c 0,-18.1 -14.7,-32.7 -32.7,-32.7 l -69.6,0 0,-12.3 -24.5,0 0,81.8 24.5,0 0,-12.3 45,0 0,45 -12.3,0 0,24.5 81.8,0 0,-24.5 -12.2,0 z"
         id="path3422" />
      <path
         style="fill:#174f65"
         inkscape:connector-curvature="0"
         d="m 217.09364,-324.89508 0,24.5 81.8,0 0,-24.5 -12.3,0 0,-45 45,0 0,12.3 24.6,0 0,-81.9 -24.6,0 0,12.3 -69.6,0 c -18.1,0 -32.7,14.7 -32.7,32.7 l 0,69.6 -12.2,0 z"
         id="path3424" />
      <path
         style="fill:#174f65"
         inkscape:connector-curvature="0"
         d="m 1105.3169,-98.776769 -45,0 0,-45.000001 12.3,0 0,-24.5 -81.79999,0 0,24.5 12.29999,0 0,69.600001 c 0,18.1 14.7,32.7 32.7,32.7 l 69.6,0 0,12.3 24.5,0 0,-81.800001 -24.5,0 0,12.200001 z"
         id="path3426" />
      <path
         style="fill:#174f65"
         inkscape:connector-curvature="0"
         d="m 1413.2925,-329.74485 0,45 -45,0 0,-12.3 -24.5,0 0,81.8 24.5,0 0,-12.3 69.6,0 c 18.1,0 32.7,-14.7 32.7,-32.7 l 0,-69.6 12.3,0 0,-24.5 -81.8,0 0,24.5 12.2,0 z"
         id="path3428" />
      <path
         style="fill:#174f65"
         d="m 1147.4629,-633.06579 0,56 62.9121,0 2.0996,0 68.5,0 0,15 25,0 0,-84 -25,0 0,13 -44,0 0,-44 12,0 0,-26 -80,0 0,26 12,0 0,44 -33.5117,0 z"
         id="path3430"
         inkscape:connector-curvature="0" />
      <path
         style="fill:#174f65"
         d="m 569.88672,-851.67773 0,144.39257 -54,0 0,-12 -25,0 0,82 25,0 0,-13 184,0 0,40 -13,0 0,26 84,0 0,-26 -14,0 0,-40 54,0 0,13 23,0 0,-82 -23,0 0,12 -184,0 0,-144.39257 -57,0 z"
         id="path3938"
         transform="translate(-15.511485,107.47224)"
         inkscape:connector-curvature="0" />
      <path
         style="fill:#174f65"
         d="m 569.88672,-851.67773 57,0 0,-106.60743 11,0 0,-26 -82,0 0,26 14,0 0,106.60743 z"
         id="polygon3432"
         transform="translate(-15.511485,107.47224)"
         inkscape:connector-curvature="0" />
      <path
         style="fill:#174f65"
         d="m 1902.5636,-442.71081 0,44 -121,0 0,-13 -24,0 0,84 24,0 0,-15 296,0 0,15 24,0 0,-84 -24,0 0,13 -116,0 0,-44 11,0 0,-26 -82,0 0,26 z"
         id="polygon3434"
         inkscape:connector-curvature="0" />
    </g>
    <path
       style="fill:#174f65"
       d="m -351.57565,-482.62664 0,56 224.38672,0 0,-56 -224.38672,0 z"
       id="path3586-6-9"
       inkscape:connector-curvature="0" />
    <path
       style="fill:#000080"
       d="m 675.5,-1214.1379 2.5,0 0,0.5 -2.5,0 z"
       id="rect3932"
       inkscape:connector-curvature="0" />
    <rect
       style="fill:#000080"
       id="rect3935"
       width="2"
       height="6"
       x="606"
       y="-1200.6379" />
  </g>
</svg>
