<?xml version="1.0" encoding="UTF-8" standalone="no"?>
<!-- Created with Inkscape (http://www.inkscape.org/) -->

<svg
   xmlns:osb="http://www.openswatchbook.org/uri/2009/osb"
   xmlns:dc="http://purl.org/dc/elements/1.1/"
   xmlns:cc="http://creativecommons.org/ns#"
   xmlns:rdf="http://www.w3.org/1999/02/22-rdf-syntax-ns#"
   xmlns:svg="http://www.w3.org/2000/svg"
   xmlns="http://www.w3.org/2000/svg"
   xmlns:xlink="http://www.w3.org/1999/xlink"
   xmlns:sodipodi="http://sodipodi.sourceforge.net/DTD/sodipodi-0.dtd"
   xmlns:inkscape="http://www.inkscape.org/namespaces/inkscape"
   width="700mm"
   height="25mm"
   viewBox="0 0 2480.3149 88.582675"
   id="svg3971"
   version="1.1"
   inkscape:version="0.91 r13725"
   sodipodi:docname="tubes-end.svg">
  <defs
     id="defs3973">
    <linearGradient
       inkscape:collect="always"
       id="linearGradient6339">
      <stop
         style="stop-color:#174f58;stop-opacity:1;"
         offset="0"
         id="stop6341" />
      <stop
         style="stop-color:#174f58;stop-opacity:0;"
         offset="1"
         id="stop6343" />
    </linearGradient>
    <linearGradient
       id="linearGradient6327"
       osb:paint="solid">
      <stop
         style="stop-color:#174f58;stop-opacity:1;"
         offset="0"
         id="stop6329" />
    </linearGradient>
    <radialGradient
       inkscape:collect="always"
       xlink:href="#linearGradient6339"
       id="radialGradient6347"
       cx="748.47266"
       cy="1050.2267"
       fx="748.47266"
       fy="1050.2267"
       r="48.613579"
       gradientTransform="matrix(0.8254545,0,0,0.29145383,1822.1783,732.69737)"
       gradientUnits="userSpaceOnUse" />
  </defs>
  <sodipodi:namedview
     id="base"
     pagecolor="#ffffff"
     bordercolor="#666666"
     borderopacity="1.0"
     inkscape:pageopacity="0.0"
     inkscape:pageshadow="2"
     inkscape:zoom="1.4142136"
     inkscape:cx="2122.0315"
     inkscape:cy="129.86149"
     inkscape:document-units="px"
     inkscape:current-layer="layer1"
     showgrid="false"
     inkscape:window-width="1366"
     inkscape:window-height="705"
     inkscape:window-x="1358"
     inkscape:window-y="-8"
     inkscape:window-maximized="1" />
  <metadata
     id="metadata3976">
    <rdf:RDF>
      <cc:Work
         rdf:about="">
        <dc:format>image/svg+xml</dc:format>
        <dc:type
           rdf:resource="http://purl.org/dc/dcmitype/StillImage" />
        <dc:title></dc:title>
      </cc:Work>
    </rdf:RDF>
  </metadata>
  <g
     inkscape:groupmode="layer"
     id="layer4"
     inkscape:label="Ajustes" />
  <g
     inkscape:label="Main"
     inkscape:groupmode="layer"
     id="layer1"
     transform="translate(0,-963.77953)">
    <rect
       style="display:inline;fill:url(#radialGradient6347);fill-opacity:1"
       id="rect4049"
       width="80.256592"
       height="26.311415"
       x="2399.8806"
       y="1025.6343" />
    <path
       id="path6353"
       style="display:inline;fill:#174f65"
       d="m 2412.4598,1033.885 c 0.01,0.1981 0.02,0.396 0.045,0.5938 0.067,0.4372 0.1821,0.8726 0.3437,1.3046 0.1613,0.4316 0.3693,0.8593 0.6231,1.2813 0.2541,0.4227 0.554,0.8392 0.8984,1.248 0.3445,0.4085 0.733,0.8087 1.1641,1.1993 0.4311,0.3909 0.9043,0.7716 1.4179,1.1406 0.5132,0.3686 1.066,0.7252 1.6563,1.0683 0.5902,0.3437 1.2173,0.6735 1.8789,0.9883 0.6619,0.314 1.3574,0.6126 2.084,0.8946 0.7266,0.2822 1.4835,0.5475 2.2675,0.7949 0.7839,0.2477 1.5942,0.4772 2.4278,0.6875 0.8336,0.2103 1.6895,0.4013 2.5644,0.5722 0.8751,0.1709 1.7681,0.3215 2.6758,0.4512 0.9077,0.1292 1.8287,0.2374 2.7598,0.3242 0.9311,0.087 1.871,0.1532 2.8164,0.1973 0.945,0.043 1.8941,0.064 2.8437,0.064 0.6725,0 1.3448,-0.011 2.0157,-0.033 0.9471,-0.031 1.8904,-0.084 2.8261,-0.1582 0.9363,-0.074 1.8639,-0.1701 2.7793,-0.2871 0.9155,-0.1171 1.8176,-0.2553 2.7032,-0.414 0.8854,-0.1589 1.753,-0.3382 2.5996,-0.5371 0.8467,-0.199 1.6713,-0.4173 2.4707,-0.6543 0.7992,-0.2366 1.5723,-0.4915 2.3164,-0.7637 0.7444,-0.2724 1.4588,-0.5618 2.1406,-0.8672 0.6815,-0.3058 1.3295,-0.6272 1.9414,-0.9629 0.6117,-0.3355 1.1866,-0.6849 1.7227,-1.0469 0.5361,-0.3614 1.0329,-0.7349 1.4883,-1.1191 0.4552,-0.3848 0.8685,-0.7798 1.2382,-1.1836 0.3699,-0.4037 0.6959,-0.8157 0.9766,-1.2344 0.2809,-0.4188 0.5162,-0.8438 0.7051,-1.2734 0.1887,-0.4294 0.3308,-0.8629 0.4257,-1.2988 0.095,-0.4361 0.1425,-0.8742 0.1426,-1.3125 -2e-4,-0.3109 -0.024,-0.6216 -0.072,-0.9317 -0.067,-0.4373 -0.1808,-0.8727 -0.3418,-1.3047 -0.1619,-0.4316 -0.3705,-0.8592 -0.625,-1.2812 -0.2535,-0.4227 -0.5527,-0.8392 -0.8965,-1.2481 -0.3444,-0.4084 -0.7329,-0.8087 -1.164,-1.1992 -0.4311,-0.3909 -0.9044,-0.7716 -1.418,-1.1406 -0.5131,-0.3686 -1.0659,-0.7252 -1.6562,-1.0684 -0.5903,-0.343 -1.2174,-0.6722 -1.8789,-0.9863 -0.6619,-0.3147 -1.3574,-0.6139 -2.084,-0.8965 -0.7267,-0.2822 -1.4835,-0.5475 -2.2676,-0.7949 -0.7839,-0.2477 -1.5941,-0.4772 -2.4277,-0.6875 -0.8336,-0.2104 -1.6895,-0.4014 -2.5645,-0.5723 -0.8751,-0.1709 -1.7681,-0.3214 -2.6758,-0.4511 -0.9076,-0.1293 -1.8287,-0.2375 -2.7597,-0.3243 -0.9311,-0.087 -1.8711,-0.1532 -2.8164,-0.1972 -0.945,-0.043 -1.8941,-0.064 -2.8438,-0.064 -0.6725,0 -1.3448,0.011 -2.0156,0.033 -0.9478,0.031 -1.8917,0.084 -2.8281,0.1582 -0.9356,0.074 -1.8625,0.1701 -2.7774,0.2871 -0.9154,0.1172 -1.8176,0.2554 -2.7031,0.4141 -0.8854,0.1589 -1.753,0.3382 -2.5996,0.5371 -0.8467,0.199 -1.6713,0.4173 -2.4707,0.6543 -0.7992,0.2366 -1.5723,0.4915 -2.3164,0.7637 -0.7445,0.273 -1.459,0.5631 -2.1406,0.8691 -0.6815,0.3052 -1.3294,0.6259 -1.9415,0.961 -0.6116,0.3355 -1.1866,0.6848 -1.7226,1.0468 -0.5362,0.3614 -1.0329,0.7349 -1.4883,1.1192 -0.4559,0.3847 -0.8698,0.7798 -1.2402,1.1836 -0.3699,0.4037 -0.6959,0.8156 -0.9766,1.2343 -0.2802,0.4188 -0.5149,0.8439 -0.7031,1.2735 -0.1887,0.4294 -0.3309,0.8629 -0.4258,1.2988 -0.071,0.3591 -0.1102,0.7195 -0.1172,1.0801 l 0,0.5703 z m 0,-79.15234 0,80.58204 c 0.01,-0.3606 0.046,-0.721 0.1171,-1.0801 0.095,-0.4359 0.2371,-0.8694 0.4258,-1.2988 0.1883,-0.4296 0.4229,-0.8547 0.7032,-1.2735 0.2807,-0.4187 0.6066,-0.8306 0.9765,-1.2343 0.3704,-0.4038 0.7843,-0.7989 1.2403,-1.1836 0.4553,-0.3843 0.9521,-0.7578 1.4882,-1.1192 0.5361,-0.362 1.111,-0.7113 1.7227,-1.0468 0.612,-0.3351 1.26,-0.6558 1.9414,-0.961 0.6817,-0.306 1.3961,-0.5961 2.1406,-0.8691 0.7441,-0.2722 1.5172,-0.5271 2.3164,-0.7637 0.7994,-0.237 1.624,-0.4553 2.4707,-0.6543 0.8466,-0.1989 1.7142,-0.3782 2.5996,-0.5371 0.8856,-0.1587 1.7877,-0.2969 2.7032,-0.4141 0.9148,-0.117 1.8417,-0.2128 2.7773,-0.2871 0.9364,-0.075 1.8803,-0.1273 2.8281,-0.1582 0.6709,-0.022 1.3431,-0.033 2.0157,-0.033 0.9496,-5e-4 1.8987,0.021 2.8437,0.064 0.9453,0.044 1.8853,0.1098 2.8164,0.1972 0.9311,0.087 1.8521,0.195 2.7598,0.3243 0.9076,0.1297 1.8007,0.2802 2.6758,0.4511 0.8749,0.1709 1.7308,0.3619 2.5644,0.5723 0.8336,0.2103 1.6438,0.4398 2.4277,0.6875 0.7841,0.2474 1.541,0.5127 2.2676,0.7949 0.7267,0.2826 1.4222,0.5818 2.084,0.8965 0.6615,0.3141 1.2886,0.6433 1.8789,0.9863 0.5903,0.3432 1.1431,0.6998 1.6563,1.0684 0.5136,0.369 0.9868,0.7497 1.4179,1.1406 0.4311,0.3905 0.8196,0.7908 1.1641,1.1992 0.3437,0.4089 0.643,0.8254 0.8965,1.2481 0.2544,0.422 0.463,0.8496 0.625,1.2812 0.161,0.432 0.275,-1.1326 0.3418,-0.6953 0.044,0.2912 0.067,0.5831 0.068,0.875 l 0.045,-2 0,-76.75974 -57,0 z"
       inkscape:connector-curvature="0"
       sodipodi:nodetypes="cccccccccccscccccccccscccccccccccccccccccccccccccccccscccccccccccccccccccccccccsccccccccccccccccccccccccc" />
    <path
       inkscape:connector-curvature="0"
       style="display:inline;fill:#174f65"
       d="m 2398.45,924.4657 0,26 14,0 0,5.793 57,0 0,-5.793 11,0 0,-26 -82,0 z"
       id="polygon3432-3-2" />
  </g>
</svg>
