<?xml version="1.0" encoding="utf-8"?>
<!-- Generator: Adobe Illustrator 16.0.0, SVG Export Plug-In . SVG Version: 6.00 Build 0)  -->
<!DOCTYPE svg PUBLIC "-//W3C//DTD SVG 1.1//EN" "http://www.w3.org/Graphics/SVG/1.1/DTD/svg11.dtd">
<svg version="1.1" id="Whole" xmlns="http://www.w3.org/2000/svg" xmlns:xlink="http://www.w3.org/1999/xlink" x="0px" y="0px"
	 width="48px" height="48px" viewBox="0 0 48 48" enable-background="new 0 0 48 48" xml:space="preserve">
<g id="Recycle">
	<g>
		<path fill="#6AC259" d="M12.197,21.045c0,0.001-0.001,0.001-0.001,0.002l-0.054,0.093c-0.001,0.002-0.002,0.004-0.003,0.006
			l-0.925,1.601l1.958,1.13l0.898-1.556l0.112-0.195l0.271-0.469l0.652-1.131h-1.958C12.75,20.528,12.398,20.734,12.197,21.045z"/>
		<path fill="#6AC259" d="M16.738,21.093c-0.096-0.166-0.235-0.311-0.414-0.414s-0.373-0.151-0.565-0.151h-1.958h-0.653
			c0.398,0,0.748,0.205,0.95,0.515l0.061,0.106l1.576,2.729l1.958-1.13L16.738,21.093z"/>
		<polygon fill="#6AC259" points="14.795,23.878 17.041,23.878 18.164,21.934 		"/>
		<path fill="#6AC259" d="M19.329,25.58c0,0-0.001,0-0.002-0.002l-0.054-0.092c0-0.004-0.002-0.004-0.003-0.006l-0.924-1.602
			l-1.958,1.129l0.898,1.557l0.113,0.195l0.27,0.469l0.653,1.131l0.979-1.695C19.501,26.318,19.498,25.912,19.329,25.58z"/>
		<path fill="#6AC259" d="M17.017,29.49c0.192,0,0.387-0.049,0.565-0.152c0.179-0.102,0.318-0.246,0.414-0.414l0.979-1.695
			l0.327-0.564c-0.199,0.344-0.551,0.545-0.921,0.564h-0.124h-3.151v2.262H17.017L17.017,29.49L17.017,29.49z"/>
		<polygon fill="#6AC259" points="15.576,26.416 14.454,28.359 15.576,30.305 		"/>
		<path fill="#6AC259" d="M13.801,27.229h-1.798h-0.225h-0.542H9.932l0.979,1.695c0.2,0.346,0.554,0.547,0.924,0.566
			c0.001,0,0.001,0,0.002,0h0.108c0.002,0,0.004,0,0.007,0H13.8L13.801,27.229L13.801,27.229z"/>
		<path fill="#6AC259" d="M9.605,25.533c-0.096,0.166-0.151,0.359-0.151,0.564c0,0.207,0.056,0.4,0.151,0.566l0.979,1.695
			l0.327,0.564c-0.199-0.344-0.197-0.75-0.029-1.08l0.062-0.105l1.576-2.73l-1.958-1.129L9.605,25.533z"/>
		<polygon fill="#6AC259" points="12.988,25.822 11.866,23.878 9.621,23.878 		"/>
	</g>
</g>
<g id="Toilet">
	<path fill="#BAC2CF" d="M27.615,27.633c-0.08-0.052-0.181-0.061-0.266-0.022c-0.314,0.14-0.651,0.209-1,0.209
		c-1.188,0-2.258-0.841-2.492-2.002c-0.026-0.13-0.141-0.224-0.272-0.224H23.25v-3.655c0-0.154-0.125-0.278-0.278-0.278h-2.227
		c-0.154,0-0.278,0.125-0.278,0.278v3.377c0,0.216,0.021,0.421,0.062,0.606c0,0.002,0,0.004,0,0.006
		c0,0.001,0.001,0.002,0.001,0.003l0,0l0,0c0.144,0.701,0.532,1.333,1.095,1.785c0.302,0.239,0.424,0.608,0.31,0.94l-0.339,1.024
		c-0.028,0.085-0.014,0.179,0.039,0.251c0.052,0.072,0.136,0.115,0.225,0.115h5.603c0.154,0,0.278-0.124,0.278-0.278v-1.903
		C27.74,27.771,27.693,27.683,27.615,27.633z"/>
	<path fill="#E0E4EC" d="M23.529,22.217h-3.062v-0.835c0-0.461,0.374-0.835,0.835-0.835h2.227c0.46,0,0.835,0.375,0.835,0.835
		S23.989,22.217,23.529,22.217z"/>
	<path fill="#D1D7E3" d="M26.35,28.376c-1.453,0-2.751-1.029-3.038-2.449c-0.017-0.082,0.005-0.166,0.058-0.231
		c0.053-0.064,0.132-0.102,0.216-0.102h5.492c0.084,0,0.161,0.037,0.214,0.102c0.054,0.064,0.074,0.148,0.059,0.231
		c-0.192,0.973-0.857,1.794-1.775,2.193C27.188,28.29,26.776,28.376,26.35,28.376z"/>
	<path fill="#E0E4EC" d="M29.132,26.15h-5.603c-0.461,0-0.835-0.374-0.835-0.835l0,0c0-0.461,0.374-0.835,0.835-0.835h5.603
		c0.461,0,0.836,0.375,0.836,0.835C29.968,25.776,29.593,26.15,29.132,26.15z"/>
</g>
<g id="Sink">
	<g>
		<path fill="#0E4675" d="M16.076,13.823c0-0.595-0.482-1.078-1.076-1.078h-3.296l-0.458,0.712h3.332v0.365H16.076L16.076,13.823z"
			/>
		<path fill="#0E4675" d="M12.076,11.299c-0.09-0.091-0.235-0.091-0.324,0l-1.446,1.446l0.323,0.325l1.446-1.447
			C12.165,11.534,12.165,11.388,12.076,11.299z"/>
	</g>
	<rect x="10.307" y="12.745" fill="#3D7A94" width="1.397" height="2.329"/>
	<path fill="#9AE1D3" d="M13.458,14.615H9.854c-0.221,0-0.401,0.18-0.401,0.401v0.533l2.491,0.459l2.491-0.459
		C14.052,14.897,13.951,14.615,13.458,14.615z"/>
	<path fill="#83C7C3" d="M9.454,18.663c0,0.404,0.328,0.733,0.733,0.733h3.758c3.043,0,5.509-1.721,5.509-3.847h-10
		C9.454,16.558,9.454,18.663,9.454,18.663z"/>
</g>
<g id="Rain">
	<g>
		<path fill="#9FDEF7" d="M29.739,16.63c-0.036,0-0.072-0.012-0.104-0.035c-0.076-0.057-0.092-0.165-0.034-0.241l0.302-0.402
			c0.058-0.076,0.166-0.092,0.242-0.034c0.076,0.057,0.091,0.165,0.034,0.241l-0.303,0.402C29.843,16.606,29.791,16.63,29.739,16.63
			z"/>
		<path fill="#9FDEF7" d="M29.046,17.553c-0.036,0-0.072-0.012-0.104-0.035c-0.076-0.057-0.092-0.165-0.034-0.241l0.302-0.403
			c0.058-0.076,0.166-0.091,0.242-0.034c0.076,0.058,0.092,0.166,0.034,0.242l-0.303,0.402
			C29.15,17.529,29.099,17.553,29.046,17.553z"/>
		<path fill="#9FDEF7" d="M28.353,18.475c-0.036,0-0.072-0.011-0.104-0.034c-0.076-0.058-0.091-0.166-0.034-0.242l0.303-0.402
			c0.057-0.076,0.165-0.092,0.241-0.034s0.092,0.165,0.034,0.241l-0.302,0.403C28.457,18.452,28.405,18.475,28.353,18.475z"/>
		<path fill="#9FDEF7" d="M27.66,19.398c-0.037,0-0.073-0.011-0.104-0.034c-0.076-0.058-0.092-0.166-0.035-0.242l0.303-0.402
			c0.057-0.076,0.166-0.092,0.242-0.034c0.076,0.057,0.091,0.165,0.033,0.241l-0.302,0.403
			C27.764,19.375,27.712,19.398,27.66,19.398z"/>
		<path fill="#9FDEF7" d="M28.412,16.63c-0.036,0-0.072-0.012-0.104-0.035c-0.076-0.057-0.092-0.165-0.034-0.241l0.303-0.402
			c0.057-0.076,0.165-0.092,0.241-0.034c0.076,0.057,0.092,0.165,0.034,0.241l-0.302,0.402C28.517,16.606,28.465,16.63,28.412,16.63
			z"/>
		<path fill="#9FDEF7" d="M27.719,17.553c-0.035,0-0.072-0.012-0.104-0.035c-0.076-0.057-0.092-0.165-0.033-0.241l0.302-0.403
			c0.058-0.076,0.165-0.091,0.241-0.034c0.076,0.058,0.092,0.166,0.035,0.242l-0.303,0.402
			C27.823,17.529,27.771,17.553,27.719,17.553z"/>
		<path fill="#9FDEF7" d="M27.025,18.475c-0.035,0-0.072-0.011-0.104-0.034c-0.076-0.058-0.091-0.166-0.033-0.242l0.303-0.402
			c0.057-0.076,0.165-0.092,0.24-0.034c0.077,0.058,0.092,0.165,0.035,0.241l-0.303,0.403
			C27.131,18.452,27.078,18.475,27.025,18.475z"/>
		<path fill="#9FDEF7" d="M26.333,19.398c-0.036,0-0.072-0.011-0.104-0.034c-0.076-0.058-0.092-0.166-0.034-0.242l0.303-0.402
			c0.057-0.076,0.165-0.092,0.241-0.034c0.076,0.057,0.091,0.165,0.034,0.241l-0.303,0.402
			C26.438,19.375,26.385,19.398,26.333,19.398z"/>
		<path fill="#9FDEF7" d="M27.086,16.63c-0.036,0-0.072-0.012-0.104-0.035c-0.076-0.057-0.092-0.165-0.035-0.241l0.303-0.402
			c0.058-0.076,0.166-0.092,0.242-0.034c0.076,0.057,0.092,0.165,0.034,0.241l-0.302,0.402C27.189,16.606,27.139,16.63,27.086,16.63
			z"/>
		<path fill="#9FDEF7" d="M26.393,17.553c-0.036,0-0.072-0.012-0.104-0.035c-0.076-0.057-0.092-0.165-0.034-0.241l0.302-0.403
			c0.058-0.076,0.166-0.091,0.242-0.034c0.076,0.058,0.092,0.166,0.034,0.242l-0.302,0.402
			C26.497,17.529,26.445,17.553,26.393,17.553z"/>
		<path fill="#9FDEF7" d="M25.699,18.475c-0.035,0-0.072-0.011-0.104-0.034c-0.076-0.058-0.092-0.166-0.034-0.242l0.303-0.402
			c0.058-0.076,0.165-0.092,0.241-0.034s0.092,0.165,0.035,0.241l-0.303,0.403C25.804,18.452,25.752,18.475,25.699,18.475z"/>
		<path fill="#9FDEF7" d="M25.006,19.398c-0.035,0-0.072-0.011-0.104-0.034c-0.076-0.058-0.092-0.166-0.033-0.242l0.302-0.402
			c0.058-0.076,0.165-0.092,0.241-0.034c0.076,0.057,0.092,0.165,0.035,0.241l-0.303,0.403
			C25.11,19.375,25.059,19.398,25.006,19.398z"/>
		<path fill="#9FDEF7" d="M25.066,17.553c-0.037,0-0.072-0.012-0.104-0.035c-0.076-0.057-0.092-0.165-0.035-0.241l0.303-0.403
			c0.058-0.076,0.166-0.091,0.242-0.034c0.076,0.058,0.092,0.166,0.034,0.242l-0.303,0.402
			C25.17,17.529,25.119,17.553,25.066,17.553z"/>
		<path fill="#9FDEF7" d="M24.373,18.475c-0.036,0-0.073-0.011-0.104-0.034c-0.076-0.058-0.092-0.166-0.035-0.242l0.302-0.402
			c0.058-0.076,0.166-0.092,0.242-0.034s0.092,0.165,0.034,0.241l-0.302,0.403C24.477,18.452,24.425,18.475,24.373,18.475z"/>
		<path fill="#9FDEF7" d="M23.68,19.398c-0.036,0-0.072-0.011-0.104-0.034c-0.076-0.058-0.091-0.166-0.034-0.242l0.302-0.402
			c0.058-0.076,0.166-0.092,0.242-0.034c0.076,0.057,0.092,0.165,0.035,0.241l-0.303,0.403
			C23.784,19.375,23.732,19.398,23.68,19.398z"/>
		<path fill="#9FDEF7" d="M23.739,17.553c-0.036,0-0.072-0.012-0.104-0.035c-0.076-0.057-0.091-0.165-0.034-0.241l0.303-0.403
			c0.057-0.076,0.165-0.091,0.242-0.034c0.076,0.058,0.091,0.166,0.034,0.242l-0.303,0.402
			C23.844,17.529,23.792,17.553,23.739,17.553z"/>
		<path fill="#9FDEF7" d="M23.046,18.475c-0.036,0-0.073-0.011-0.104-0.034c-0.076-0.058-0.092-0.166-0.034-0.242l0.302-0.402
			c0.057-0.076,0.166-0.092,0.242-0.034s0.091,0.165,0.034,0.241l-0.302,0.403C23.15,18.452,23.099,18.475,23.046,18.475z"/>
		<path fill="#9FDEF7" d="M22.353,19.398c-0.036,0-0.072-0.011-0.104-0.034c-0.076-0.058-0.091-0.166-0.034-0.242l0.302-0.402
			c0.058-0.076,0.166-0.092,0.242-0.034c0.076,0.057,0.092,0.165,0.035,0.241l-0.303,0.402
			C22.458,19.375,22.406,19.398,22.353,19.398z"/>
		<path fill="#9FDEF7" d="M22.413,17.553c-0.036,0-0.073-0.012-0.104-0.035c-0.077-0.057-0.092-0.165-0.035-0.241l0.303-0.403
			c0.057-0.076,0.165-0.091,0.242-0.034c0.076,0.058,0.091,0.166,0.034,0.242l-0.302,0.402
			C22.517,17.529,22.465,17.553,22.413,17.553z"/>
		<path fill="#9FDEF7" d="M21.72,18.475c-0.036,0-0.072-0.011-0.104-0.034c-0.076-0.058-0.092-0.166-0.034-0.242l0.302-0.402
			c0.057-0.076,0.166-0.092,0.242-0.034s0.092,0.165,0.034,0.241l-0.302,0.403C21.824,18.452,21.772,18.475,21.72,18.475z"/>
		<path fill="#9FDEF7" d="M21.026,19.398c-0.036,0-0.072-0.011-0.104-0.034c-0.076-0.058-0.091-0.166-0.034-0.242l0.303-0.402
			c0.057-0.076,0.165-0.092,0.242-0.034c0.076,0.057,0.091,0.165,0.034,0.241l-0.303,0.403
			C21.131,19.375,21.079,19.398,21.026,19.398z"/>
		<path fill="#9FDEF7" d="M29.003,13.98h-2.175c-0.42,0-0.762-0.341-0.762-0.761s0.342-0.761,0.762-0.761
			c0.066,0,0.131,0.009,0.191,0.024c0.08-0.116,0.2-0.202,0.34-0.24c-0.23-0.595-0.809-1.017-1.484-1.017
			c-0.759,0-1.393,0.53-1.553,1.24c-0.095-0.032-0.197-0.049-0.303-0.049c-0.326,0-0.613,0.163-0.786,0.412
			c-0.096-0.025-0.197-0.039-0.301-0.039c-0.662,0-1.198,0.536-1.198,1.198c0,0.192,0.045,0.374,0.125,0.534
			c0.141-0.436,0.549-0.75,1.031-0.75c0.516,0,0.948,0.36,1.057,0.844c0.065-0.022,0.134-0.034,0.206-0.034
			c0.222,0,0.417,0.111,0.535,0.28c0.065-0.017,0.134-0.025,0.205-0.025c0.276,0,0.521,0.138,0.669,0.349h1.326h0.625h0.307
			c0.653,0,1.184-0.53,1.184-1.184C29.004,13.994,29.003,13.987,29.003,13.98z"/>
	</g>
	<path fill="#E4F2F9" d="M30.006,12.446c-0.081,0-0.16,0.013-0.233,0.036c0.001-0.012,0.001-0.023,0.001-0.036
		c0-0.578-0.468-1.046-1.046-1.046c-0.498,0-0.915,0.348-1.021,0.814c-0.063-0.021-0.129-0.032-0.198-0.032
		c-0.214,0-0.403,0.107-0.517,0.271c-0.063-0.016-0.129-0.025-0.197-0.025c-0.436,0-0.787,0.352-0.787,0.787
		s0.352,0.787,0.787,0.787h3.211c0.429,0,0.777-0.348,0.777-0.778S30.435,12.446,30.006,12.446z"/>
	<path fill="#83D4ED" d="M24.209,12.435c-0.062-0.013-0.125-0.019-0.19-0.019c-0.326,0-0.613,0.163-0.786,0.412
		c-0.096-0.024-0.197-0.038-0.301-0.038c-0.662,0-1.198,0.536-1.198,1.198c0,0.192,0.045,0.374,0.125,0.534
		c0.141-0.436,0.549-0.75,1.031-0.75c0.516,0,0.948,0.361,1.057,0.844c0.065-0.022,0.134-0.034,0.206-0.034
		c0.222,0,0.417,0.111,0.535,0.28c0.065-0.017,0.134-0.025,0.205-0.025c0.276,0,0.521,0.138,0.669,0.349h0.899
		C25.219,14.858,24.288,13.761,24.209,12.435z"/>
	<path fill="#D7EDF9" d="M27.647,12.199c-0.045-0.01-0.091-0.016-0.139-0.016c-0.214,0-0.403,0.107-0.517,0.271
		c-0.063-0.016-0.129-0.025-0.197-0.025c-0.436,0-0.787,0.352-0.787,0.787s0.352,0.787,0.787,0.787h1.999
		C28.118,13.682,27.65,12.995,27.647,12.199z"/>
	<path fill="#E4F2F9" d="M24.915,14.814c-0.071,0-0.14,0.01-0.205,0.026c-0.117-0.169-0.313-0.28-0.535-0.28
		c-0.072,0-0.141,0.012-0.206,0.033c-0.109-0.483-0.541-0.844-1.057-0.844c-0.598,0-1.083,0.485-1.083,1.084
		c0,0.012,0,0.024,0.001,0.036c-0.076-0.023-0.157-0.036-0.241-0.036c-0.445,0-0.806,0.36-0.806,0.806
		c0,0.444,0.361,0.806,0.806,0.806h2.13h0.583h0.613c0.45,0,0.815-0.365,0.815-0.815S25.365,14.814,24.915,14.814z"/>
	<path fill="#D7EDF9" d="M22.121,14.094c-0.181,0.194-0.292,0.454-0.292,0.739c0,0.012,0,0.024,0.001,0.036
		c-0.076-0.023-0.157-0.036-0.241-0.036c-0.445,0-0.806,0.36-0.806,0.806c0,0.444,0.361,0.806,0.806,0.806h2.13h0.072
		C22.826,16.096,22.133,15.177,22.121,14.094z"/>
</g>
<g id="Glass" opacity="0.3">
	<circle id="Glass_1_" fill="#64B5F6" cx="20" cy="20" r="13"/>
	<path id="Reflection" fill="#BBDEFB" d="M20,11c-2.699,0-5.199,1.199-6.897,3.199c-0.402,0.402-0.302,1.103,0.098,1.402
		c0.402,0.397,1.102,0.297,1.402-0.103C16,13.898,17.897,13,20,13c2.102,0,4,0.898,5.398,2.5c0.203,0.199,0.5,0.398,0.801,0.398
		c0.199,0,0.5-0.099,0.602-0.199c0.398-0.397,0.398-1.098,0.098-1.5C25.199,12.199,22.699,11,20,11z"/>
	<g>
		<rect x="22.849" y="21.191" fill="none" width="13.151" height="5.331"/>
		<line fill="none" x1="22.849" y1="25.634" x2="36" y2="25.634"/>
		<line fill="none" x1="22.849" y1="24.744" x2="36" y2="24.744"/>
		<line fill="none" x1="22.849" y1="23.856" x2="36" y2="23.856"/>
		<line fill="none" x1="22.849" y1="22.969" x2="36" y2="22.969"/>
		<line fill="none" x1="22.849" y1="22.079" x2="36" y2="22.079"/>
		<line fill="none" x1="33.807" y1="21.191" x2="33.807" y2="26.521"/>
		<line fill="none" x1="31.617" y1="21.191" x2="31.617" y2="26.521"/>
		<line fill="none" x1="29.424" y1="21.191" x2="29.424" y2="26.521"/>
		<line fill="none" x1="27.23" y1="21.191" x2="27.23" y2="26.521"/>
		<line fill="none" x1="25.042" y1="21.191" x2="25.042" y2="26.521"/>
	</g>
</g>
<g id="Magnifying_Glass">
	
		<rect x="34.606" y="28.084" transform="matrix(-0.7071 0.7071 -0.7071 -0.7071 88.3596 36.5721)" fill="#616161" width="4" height="17.004"/>
	<path fill="#616161" d="M20,4C11.164,4,4,11.164,4,20s7.164,16,16,16s16-7.164,16-16S28.836,4,20,4z M20,33c-7.18,0-13-5.82-13-13
		c0-7.18,5.82-13,13-13c7.18,0,13,5.82,13,13C33,27.18,27.18,33,20,33z"/>
	
		<rect x="36.218" y="32.125" transform="matrix(-0.7071 0.7071 -0.7071 -0.7071 92.3059 38.3145)" fill="#37474F" width="4" height="12.3"/>
</g>
</svg>
