<?xml version="1.0" encoding="iso-8859-1"?>
<!-- Generator: Adobe Illustrator 19.0.0, SVG Export Plug-In . SVG Version: 6.00 Build 0)  -->
<svg version="1.1" id="Layer_1" xmlns="http://www.w3.org/2000/svg" xmlns:xlink="http://www.w3.org/1999/xlink" x="0px" y="0px"
	 viewBox="0 0 512 512" style="enable-background:new 0 0 512 512;" xml:space="preserve">
<path style="fill:#BAC2CF;" d="M385.188,381.834c-4.263-2.754-9.639-3.193-14.268-1.143C353.973,388.191,335.823,392,317,392
	c-64.028,0-121.678-45.41-134.29-107.974c-1.421-6.987-7.573-12.026-14.707-12.026H150V75c0-8.291-6.709-15-15-15H15
	C6.709,60,0,66.709,0,75v182c0,11.667,1.144,22.643,3.303,32.681c0.018,0.103-0.027,0.205-0.007,0.308
	c0.013,0.066,0.044,0.126,0.057,0.192l0.002,0.013c0.002,0.007,0.007,0.015,0.007,0.015c7.731,37.723,28.649,71.856,59.011,96.138
	c16.26,12.905,22.822,32.783,16.685,50.742l-18.296,55.195c-1.509,4.57-0.747,9.595,2.08,13.491C65.654,509.686,70.181,512,75,512
	h302c8.291,0,15-6.709,15-15V394.402C392,389.334,389.437,384.603,385.188,381.834z"/>
<path style="fill:#E0E4EC;" d="M165,90H0V45C0,20.147,20.147,0,45,0h120c24.814,0,45,20.186,45,45S189.814,90,165,90z"/>
<path style="fill:#D1D7E3;" d="M317,422c-78.267,0-148.265-55.532-163.704-132.026c-0.894-4.424,0.249-8.994,3.105-12.48
	c2.842-3.472,7.104-5.493,11.602-5.493h295.994c4.497,0,8.745,2.007,11.587,5.479c2.856,3.472,3.999,8.042,3.12,12.451
	c-10.415,52.456-46.201,96.665-95.713,118.228C362.264,417.327,340.042,422,317,422z"/>
<path style="fill:#E0E4EC;" d="M467,302H165c-24.853,0-45-20.147-45-45l0,0c0-24.853,20.147-45,45-45h302c24.814,0,45,20.186,45,45
	S491.814,302,467,302z"/>
<g>
</g>
<g>
</g>
<g>
</g>
<g>
</g>
<g>
</g>
<g>
</g>
<g>
</g>
<g>
</g>
<g>
</g>
<g>
</g>
<g>
</g>
<g>
</g>
<g>
</g>
<g>
</g>
<g>
</g>
</svg>
